<?xml version="1.0" encoding="utf-8" standalone="no"?>
<!DOCTYPE svg PUBLIC "-//W3C//DTD SVG 1.1//EN"
  "http://www.w3.org/Graphics/SVG/1.1/DTD/svg11.dtd">
<svg height="345.6pt" version="1.1" viewBox="0 0 460.8 345.6" width="460.8pt" xmlns="http://www.w3.org/2000/svg" xmlns:xlink="http://www.w3.org/1999/xlink">
 <metadata>
  <rdf:RDF xmlns:cc="http://creativecommons.org/ns#" xmlns:dc="http://purl.org/dc/elements/1.1/" xmlns:rdf="http://www.w3.org/1999/02/22-rdf-syntax-ns#">
   <cc:Work>
    <dc:type rdf:resource="http://purl.org/dc/dcmitype/StillImage"/>
    <dc:date>2021-06-30T21:30:17.806761</dc:date>
    <dc:format>image/svg+xml</dc:format>
    <dc:creator>
     <cc:Agent>
      <dc:title>Matplotlib v3.4.2, https://matplotlib.org/</dc:title>
     </cc:Agent>
    </dc:creator>
   </cc:Work>
  </rdf:RDF>
 </metadata>
 <defs>
  <style type="text/css">*{stroke-linecap:butt;stroke-linejoin:round;}</style>
 </defs>
 <g id="figure_1">
  <g id="patch_1">
   <path d="M 0 345.6 
L 460.8 345.6 
L 460.8 0 
L 0 0 
z
" style="fill:#191919;"/>
  </g>
  <g id="axes_1">
   <g id="patch_2">
    <path d="M 37.497498 295.704597 
L 445.68 295.704597 
L 445.68 15.12 
L 37.497498 15.12 
z
" style="fill:#191919;"/>
   </g>
   <g id="matplotlib.axis_1">
    <g id="xtick_1">
     <g id="line2d_1">
      <path clip-path="url(#pda0151bcbf)" d="M 93.158748 295.704597 
L 93.158748 15.12 
" style="fill:none;stroke:#343434;stroke-linecap:round;stroke-width:0.8;"/>
     </g>
     <g id="line2d_2"/>
     <g id="text_1">
      <!-- $\mathdefault{0.6}$ -->
      <g style="fill:#e6e6e6;" transform="translate(84.441438 308.890474)scale(0.14 -0.14)">
       <defs>
        <path d="M 1683 4416 
C 691 4416 186 3628 186 2077 
C 186 1326 320 680 544 366 
C 768 51 1126 -128 1523 -128 
C 2490 -128 2976 705 2976 2346 
C 2976 3749 2560 4416 1683 4416 
z
M 1568 4192 
C 2189 4192 2438 3564 2438 2025 
C 2438 661 2195 96 1606 96 
C 986 96 723 744 723 2308 
C 723 3660 960 4192 1568 4192 
z
" id="URWPalladioL-Roma-30" transform="scale(0.015625)"/>
        <path d="M 794 744 
C 602 744 429 564 429 372 
C 429 179 602 0 787 0 
C 992 0 1171 173 1171 372 
C 1171 564 992 744 794 744 
z
" id="URWPalladioL-Roma-2e" transform="scale(0.015625)"/>
        <path d="M 2662 4310 
L 2426 4419 
C 1811 4214 1549 4086 1222 3804 
C 563 3246 205 2464 205 1585 
C 205 526 717 -128 1542 -128 
C 2374 -128 2995 532 2995 1405 
C 2995 2143 2554 2624 1875 2624 
C 1555 2624 1363 2540 986 2239 
C 915 2181 909 2175 838 2124 
C 973 3284 1510 3913 2662 4259 
L 2662 4310 
z
M 1632 2239 
C 2118 2239 2445 1816 2445 1181 
C 2445 513 2118 83 1626 83 
C 1082 83 787 551 787 1412 
C 787 1636 813 1758 883 1867 
C 1024 2085 1325 2239 1632 2239 
z
" id="URWPalladioL-Roma-36" transform="scale(0.015625)"/>
       </defs>
       <use transform="scale(0.996264)" xlink:href="#URWPalladioL-Roma-30"/>
       <use transform="translate(49.8132 0)scale(0.996264)" xlink:href="#URWPalladioL-Roma-2e"/>
       <use transform="translate(74.719801 0)scale(0.996264)" xlink:href="#URWPalladioL-Roma-36"/>
      </g>
     </g>
    </g>
    <g id="xtick_2">
     <g id="line2d_3">
      <path clip-path="url(#pda0151bcbf)" d="M 167.373749 295.704597 
L 167.373749 15.12 
" style="fill:none;stroke:#343434;stroke-linecap:round;stroke-width:0.8;"/>
     </g>
     <g id="line2d_4"/>
     <g id="text_2">
      <!-- $\mathdefault{0.8}$ -->
      <g style="fill:#e6e6e6;" transform="translate(158.656439 308.890474)scale(0.14 -0.14)">
       <defs>
        <path d="M 1075 2211 
C 813 2090 704 2019 563 1884 
C 320 1641 192 1352 192 1019 
C 192 359 723 -128 1446 -128 
C 2278 -128 2970 526 2970 1320 
C 2970 1833 2733 2109 2003 2442 
C 2586 2840 2790 3109 2790 3493 
C 2790 4044 2336 4416 1658 4416 
C 896 4416 339 3929 339 3257 
C 339 2821 512 2577 1075 2211 
z
M 1818 1891 
C 2221 1711 2464 1397 2464 1052 
C 2464 513 2061 90 1542 90 
C 998 90 646 475 646 1071 
C 646 1538 832 1833 1306 2122 
L 1818 1891 
z
M 1427 2712 
C 1024 2910 819 3167 819 3487 
C 819 3910 1126 4198 1581 4198 
C 2048 4198 2355 3891 2355 3422 
C 2355 3058 2195 2808 1779 2538 
L 1427 2712 
z
" id="URWPalladioL-Roma-38" transform="scale(0.015625)"/>
       </defs>
       <use transform="scale(0.996264)" xlink:href="#URWPalladioL-Roma-30"/>
       <use transform="translate(49.8132 0)scale(0.996264)" xlink:href="#URWPalladioL-Roma-2e"/>
       <use transform="translate(74.719801 0)scale(0.996264)" xlink:href="#URWPalladioL-Roma-38"/>
      </g>
     </g>
    </g>
    <g id="xtick_3">
     <g id="line2d_5">
      <path clip-path="url(#pda0151bcbf)" d="M 241.588749 295.704597 
L 241.588749 15.12 
" style="fill:none;stroke:#343434;stroke-linecap:round;stroke-width:0.8;"/>
     </g>
     <g id="line2d_6"/>
     <g id="text_3">
      <!-- $\mathdefault{1.0}$ -->
      <g style="fill:#e6e6e6;" transform="translate(232.871439 308.890474)scale(0.14 -0.14)">
       <defs>
        <path d="M 429 3584 
L 493 3584 
L 1318 3956 
C 1325 3962 1331 3962 1338 3962 
C 1376 3962 1389 3905 1389 3751 
L 1389 613 
C 1389 276 1318 205 973 205 
L 614 205 
L 614 0 
C 1600 0 1600 0 1670 0 
C 1754 0 1894 0 2112 0 
C 2189 0 2413 0 2675 0 
L 2675 205 
L 2342 205 
C 1990 205 1926 276 1926 612 
L 1926 4443 
L 1837 4475 
C 1421 4257 966 4065 384 3860 
L 429 3584 
z
" id="URWPalladioL-Roma-31" transform="scale(0.015625)"/>
       </defs>
       <use transform="scale(0.996264)" xlink:href="#URWPalladioL-Roma-31"/>
       <use transform="translate(49.8132 0)scale(0.996264)" xlink:href="#URWPalladioL-Roma-2e"/>
       <use transform="translate(74.719801 0)scale(0.996264)" xlink:href="#URWPalladioL-Roma-30"/>
      </g>
     </g>
    </g>
    <g id="xtick_4">
     <g id="line2d_7">
      <path clip-path="url(#pda0151bcbf)" d="M 315.803749 295.704597 
L 315.803749 15.12 
" style="fill:none;stroke:#343434;stroke-linecap:round;stroke-width:0.8;"/>
     </g>
     <g id="line2d_8"/>
     <g id="text_4">
      <!-- $\mathdefault{1.2}$ -->
      <g style="fill:#e6e6e6;" transform="translate(307.086439 308.890474)scale(0.14 -0.14)">
       <defs>
        <path d="M 102 160 
L 102 0 
C 1299 0 1299 0 1530 0 
C 1760 0 1760 0 2995 0 
C 2982 125 2982 186 2982 269 
C 2982 348 2982 407 2995 539 
C 2259 539 1965 539 781 539 
L 1946 1761 
C 2566 2414 2758 2763 2758 3238 
C 2758 3966 2259 4416 1446 4416 
C 986 4416 672 4288 358 3969 
L 250 3099 
L 435 3099 
L 518 3393 
C 621 3763 851 3923 1280 3923 
C 1830 3923 2182 3577 2182 3035 
C 2182 2555 1914 2083 1190 1316 
L 102 160 
z
" id="URWPalladioL-Roma-32" transform="scale(0.015625)"/>
       </defs>
       <use transform="scale(0.996264)" xlink:href="#URWPalladioL-Roma-31"/>
       <use transform="translate(49.8132 0)scale(0.996264)" xlink:href="#URWPalladioL-Roma-2e"/>
       <use transform="translate(74.719801 0)scale(0.996264)" xlink:href="#URWPalladioL-Roma-32"/>
      </g>
     </g>
    </g>
    <g id="xtick_5">
     <g id="line2d_9">
      <path clip-path="url(#pda0151bcbf)" d="M 390.01875 295.704597 
L 390.01875 15.12 
" style="fill:none;stroke:#343434;stroke-linecap:round;stroke-width:0.8;"/>
     </g>
     <g id="line2d_10"/>
     <g id="text_5">
      <!-- $\mathdefault{1.4}$ -->
      <g style="fill:#e6e6e6;" transform="translate(381.30144 308.890474)scale(0.14 -0.14)">
       <defs>
        <path d="M 1792 1152 
L 1792 673 
C 1792 289 1722 199 1408 199 
L 1011 199 
L 1011 0 
C 1862 0 1862 0 2016 0 
C 2170 0 2170 0 3021 0 
L 3021 199 
L 2714 199 
C 2400 199 2330 282 2330 669 
L 2330 1152 
C 2707 1152 2842 1152 3021 1133 
L 3021 1588 
C 2720 1563 2598 1563 2502 1563 
L 2483 1563 
L 2330 1563 
L 2330 2457 
C 2330 3600 2342 4152 2374 4416 
L 2298 4448 
L 1824 4275 
L 13 1299 
L 83 1152 
L 1792 1152 
z
M 1792 1563 
L 416 1563 
L 1792 3826 
L 1792 1563 
z
" id="URWPalladioL-Roma-34" transform="scale(0.015625)"/>
       </defs>
       <use transform="scale(0.996264)" xlink:href="#URWPalladioL-Roma-31"/>
       <use transform="translate(49.8132 0)scale(0.996264)" xlink:href="#URWPalladioL-Roma-2e"/>
       <use transform="translate(74.719801 0)scale(0.996264)" xlink:href="#URWPalladioL-Roma-34"/>
      </g>
     </g>
    </g>
    <g id="text_6">
     <!-- Drive Frequency -->
     <g style="fill:#e6e6e6;" transform="translate(186.365265 327.225557)scale(0.168 -0.168)">
      <defs>
       <path d="M 570 4416 
L 570 0 
L 2144 0 
C 3194 0 4000 980 4000 2170 
C 4000 3398 3194 4416 2144 4416 
L 570 4416 
z
M 1094 357 
L 1094 4059 
L 2003 4059 
C 2861 4059 3475 3277 3475 2170 
C 3475 1107 2867 357 2003 357 
L 1094 357 
z
" id="CMSS17-44" transform="scale(0.015625)"/>
       <path d="M 954 1363 
C 954 1965 1395 2368 1958 2368 
L 1958 2789 
C 1549 2789 1165 2585 934 2253 
L 934 2758 
L 480 2758 
L 480 0 
L 954 0 
L 954 1363 
z
" id="CMSS17-72" transform="scale(0.015625)"/>
       <path d="M 979 4183 
L 442 4183 
L 442 3648 
L 979 3648 
L 979 4183 
z
M 947 2739 
L 474 2739 
L 474 0 
L 947 0 
L 947 2739 
z
" id="CMSS17-69" transform="scale(0.015625)"/>
       <path d="M 2675 2752 
L 2176 2752 
L 1747 1556 
C 1613 1165 1421 627 1389 352 
L 1382 352 
C 1370 468 1318 634 1286 749 
C 1248 890 1197 1056 1158 1172 
L 595 2752 
L 83 2752 
L 1094 0 
L 1664 0 
L 2675 2752 
z
" id="CMSS17-76" transform="scale(0.015625)"/>
       <path d="M 2502 1377 
C 2502 1590 2490 2003 2285 2345 
C 2061 2713 1696 2816 1421 2816 
C 755 2816 192 2188 192 1375 
C 192 582 774 -64 1510 -64 
C 1798 -64 2150 19 2470 248 
C 2470 274 2458 414 2451 420 
C 2451 433 2432 630 2432 656 
C 2125 407 1773 325 1517 325 
C 1107 325 666 667 646 1377 
L 2502 1377 
z
M 698 1728 
C 781 2084 1062 2421 1421 2421 
C 1517 2421 1965 2421 2080 1728 
L 698 1728 
z
" id="CMSS17-65" transform="scale(0.015625)"/>
       <path d="M 2918 1984 
L 2918 2373 
L 1101 2373 
L 1101 3968 
L 1882 3968 
C 1958 3968 2035 3968 2112 3968 
L 3168 3968 
L 3168 4375 
L 563 4375 
L 563 -32 
L 1101 -32 
L 1101 1984 
L 2918 1984 
z
" id="CMSS17-46" transform="scale(0.015625)"/>
       <path d="M 2611 2816 
L 2138 2816 
L 2138 2428 
C 2112 2460 1818 2816 1318 2816 
C 736 2816 211 2228 211 1399 
C 211 633 653 -5 1229 -5 
C 1498 -5 1837 91 2125 365 
L 2125 -1216 
L 2611 -1216 
L 2611 2816 
z
M 2138 914 
C 2138 832 2138 718 1939 554 
C 1888 510 1747 384 1504 384 
C 1050 384 698 850 698 1399 
C 698 2011 1126 2415 1562 2415 
C 1926 2415 2138 2061 2138 1797 
L 2138 914 
z
" id="CMSS17-71" transform="scale(0.015625)"/>
       <path d="M 2618 2739 
L 2131 2739 
L 2131 972 
C 2131 498 1786 306 1421 306 
C 998 306 960 447 960 709 
L 960 2739 
L 474 2739 
L 474 678 
C 474 179 646 -64 1088 -64 
C 1306 -64 1798 -13 2144 306 
L 2144 0 
L 2618 0 
L 2618 2739 
z
" id="CMSS17-75" transform="scale(0.015625)"/>
       <path d="M 2618 1877 
C 2618 2283 2522 2816 1798 2816 
C 1389 2816 1120 2606 941 2389 
L 941 2758 
L 474 2758 
L 474 0 
L 960 0 
L 960 1559 
C 960 1964 1114 2428 1549 2428 
C 2112 2428 2131 2048 2131 1829 
L 2131 0 
L 2618 0 
L 2618 1877 
z
" id="CMSS17-6e" transform="scale(0.015625)"/>
       <path d="M 2464 2541 
C 2464 2585 2170 2714 2093 2739 
C 1882 2816 1613 2816 1542 2816 
C 710 2816 211 2093 211 1363 
C 211 595 768 -64 1517 -64 
C 1946 -64 2253 76 2502 242 
L 2464 664 
C 2189 453 1869 337 1523 337 
C 1024 337 698 774 698 1369 
C 698 1831 909 2414 1549 2414 
C 1901 2414 2099 2343 2394 2145 
L 2464 2541 
z
" id="CMSS17-63" transform="scale(0.015625)"/>
       <path d="M 2675 2752 
L 2176 2752 
C 1632 1294 1446 702 1434 383 
L 1427 383 
C 1408 696 1126 1460 902 2007 
L 602 2752 
L 83 2752 
L 1216 13 
C 1146 -178 1043 -465 1011 -529 
C 870 -885 774 -885 672 -885 
C 646 -885 442 -885 211 -809 
L 250 -1229 
C 410 -1261 570 -1280 685 -1280 
C 845 -1280 1165 -1280 1459 -497 
L 2675 2752 
z
" id="CMSS17-79" transform="scale(0.015625)"/>
      </defs>
      <use transform="scale(0.996264)" xlink:href="#CMSS17-44"/>
      <use transform="translate(67.542842 0)scale(0.996264)" xlink:href="#CMSS17-72"/>
      <use transform="translate(99.452614 0)scale(0.996264)" xlink:href="#CMSS17-69"/>
      <use transform="translate(121.633337 0)scale(0.996264)" xlink:href="#CMSS17-76"/>
      <use transform="translate(164.633479 0)scale(0.996264)" xlink:href="#CMSS17-65"/>
      <use transform="translate(237.501414 0)scale(0.996264)" xlink:href="#CMSS17-46"/>
      <use transform="translate(288.188519 0)scale(0.996264)" xlink:href="#CMSS17-72"/>
      <use transform="translate(320.098292 0)scale(0.996264)" xlink:href="#CMSS17-65"/>
      <use transform="translate(361.737114 0)scale(0.996264)" xlink:href="#CMSS17-71"/>
      <use transform="translate(409.942057 0)scale(0.996264)" xlink:href="#CMSS17-75"/>
      <use transform="translate(458.147 0)scale(0.996264)" xlink:href="#CMSS17-65"/>
      <use transform="translate(499.785822 0)scale(0.996264)" xlink:href="#CMSS17-6e"/>
      <use transform="translate(547.990765 0)scale(0.996264)" xlink:href="#CMSS17-63"/>
      <use transform="translate(589.629587 0)scale(0.996264)" xlink:href="#CMSS17-79"/>
     </g>
    </g>
   </g>
   <g id="matplotlib.axis_2">
    <g id="ytick_1">
     <g id="line2d_11">
      <path clip-path="url(#pda0151bcbf)" d="M 37.497498 289.21515 
L 445.68 289.21515 
" style="fill:none;stroke:#343434;stroke-linecap:round;stroke-width:0.8;"/>
     </g>
     <g id="line2d_12"/>
    </g>
    <g id="ytick_2">
     <g id="line2d_13">
      <path clip-path="url(#pda0151bcbf)" d="M 37.497498 237.455562 
L 445.68 237.455562 
" style="fill:none;stroke:#343434;stroke-linecap:round;stroke-width:0.8;"/>
     </g>
     <g id="line2d_14"/>
    </g>
    <g id="ytick_3">
     <g id="line2d_15">
      <path clip-path="url(#pda0151bcbf)" d="M 37.497498 185.695974 
L 445.68 185.695974 
" style="fill:none;stroke:#343434;stroke-linecap:round;stroke-width:0.8;"/>
     </g>
     <g id="line2d_16"/>
    </g>
    <g id="ytick_4">
     <g id="line2d_17">
      <path clip-path="url(#pda0151bcbf)" d="M 37.497498 133.936386 
L 445.68 133.936386 
" style="fill:none;stroke:#343434;stroke-linecap:round;stroke-width:0.8;"/>
     </g>
     <g id="line2d_18"/>
    </g>
    <g id="ytick_5">
     <g id="line2d_19">
      <path clip-path="url(#pda0151bcbf)" d="M 37.497498 82.176798 
L 445.68 82.176798 
" style="fill:none;stroke:#343434;stroke-linecap:round;stroke-width:0.8;"/>
     </g>
     <g id="line2d_20"/>
    </g>
    <g id="ytick_6">
     <g id="line2d_21">
      <path clip-path="url(#pda0151bcbf)" d="M 37.497498 30.41721 
L 445.68 30.41721 
" style="fill:none;stroke:#343434;stroke-linecap:round;stroke-width:0.8;"/>
     </g>
     <g id="line2d_22"/>
    </g>
    <g id="text_7">
     <!-- Amplitude -->
     <g style="fill:#e6e6e6;" transform="translate(26.743055 190.373122)rotate(-90)scale(0.168 -0.168)">
      <defs>
       <path d="M 2272 4416 
L 1722 4416 
L 166 0 
L 653 0 
L 1101 1280 
L 2816 1280 
L 3270 0 
L 3827 0 
L 2272 4416 
z
M 2694 1637 
L 1222 1637 
C 1530 2528 1914 3638 1958 3925 
L 1965 3925 
C 2010 3663 2138 3281 2246 2956 
L 2694 1637 
z
" id="CMSS17-41" transform="scale(0.015625)"/>
       <path d="M 4288 1877 
C 4288 2308 4179 2816 3462 2816 
C 2982 2816 2694 2516 2566 2331 
C 2451 2670 2182 2816 1798 2816 
C 1363 2816 1088 2568 941 2389 
L 941 2758 
L 474 2758 
L 474 0 
L 960 0 
L 960 1559 
C 960 1939 1101 2428 1555 2428 
C 2138 2428 2138 2016 2138 1829 
L 2138 0 
L 2624 0 
L 2624 1559 
C 2624 1939 2765 2428 3219 2428 
C 3802 2428 3802 2016 3802 1829 
L 3802 0 
L 4288 0 
L 4288 1877 
z
" id="CMSS17-6d" transform="scale(0.015625)"/>
       <path d="M 966 333 
C 1178 129 1466 -5 1773 -5 
C 2368 -5 2880 603 2880 1412 
C 2880 2159 2496 2816 1946 2816 
C 1626 2816 1242 2702 954 2472 
L 954 2765 
L 480 2765 
L 480 -1216 
L 966 -1216 
L 966 333 
z
M 966 2100 
C 1018 2176 1235 2415 1587 2415 
C 2035 2415 2394 1960 2394 1412 
C 2394 787 1958 384 1530 384 
C 1402 384 1267 415 1139 523 
C 966 674 966 768 966 857 
L 966 2100 
z
" id="CMSS17-70" transform="scale(0.015625)"/>
       <path d="M 947 4416 
L 474 4416 
L 474 0 
L 947 0 
L 947 4416 
z
" id="CMSS17-6c" transform="scale(0.015625)"/>
       <path d="M 1069 2368 
L 1901 2368 
L 1901 2737 
L 1069 2737 
L 1069 3520 
L 614 3520 
L 614 2737 
L 109 2737 
L 109 2368 
L 602 2368 
L 602 749 
C 602 384 685 -64 1107 -64 
C 1427 -64 1722 25 2003 172 
L 1901 548 
C 1747 414 1562 337 1363 337 
C 1082 337 1069 696 1069 856 
L 1069 2368 
z
" id="CMSS17-74" transform="scale(0.015625)"/>
       <path d="M 2611 4416 
L 2138 4416 
L 2138 2438 
C 1939 2603 1613 2756 1254 2756 
C 672 2756 211 2131 211 1347 
C 211 562 666 -64 1235 -64 
C 1677 -64 1971 172 2125 306 
L 2125 -13 
L 2611 -13 
L 2611 4416 
z
M 2125 836 
C 2125 747 2125 653 1926 482 
C 1798 375 1645 325 1498 325 
C 1152 325 698 576 698 1340 
C 698 2134 1210 2368 1562 2368 
C 1798 2368 1990 2254 2125 2065 
L 2125 836 
z
" id="CMSS17-64" transform="scale(0.015625)"/>
      </defs>
      <use transform="scale(0.996264)" xlink:href="#CMSS17-41"/>
      <use transform="translate(62.217855 0)scale(0.996264)" xlink:href="#CMSS17-6d"/>
      <use transform="translate(136.447109 0)scale(0.996264)" xlink:href="#CMSS17-70"/>
      <use transform="translate(184.652052 0)scale(0.996264)" xlink:href="#CMSS17-6c"/>
      <use transform="translate(206.832776 0)scale(0.996264)" xlink:href="#CMSS17-69"/>
      <use transform="translate(229.013499 0)scale(0.996264)" xlink:href="#CMSS17-74"/>
      <use transform="translate(262.845065 0)scale(0.996264)" xlink:href="#CMSS17-75"/>
      <use transform="translate(311.050008 0)scale(0.996264)" xlink:href="#CMSS17-64"/>
      <use transform="translate(359.254952 0)scale(0.996264)" xlink:href="#CMSS17-65"/>
     </g>
    </g>
   </g>
   <g id="line2d_23">
    <path clip-path="url(#pda0151bcbf)" d="M 56.051248 271.133198 
L 65.979676 269.798483 
L 75.908104 268.233108 
L 84.595479 266.633209 
L 92.0418 265.05556 
L 99.488121 263.250294 
L 105.693389 261.540552 
L 111.898656 259.61111 
L 118.103924 257.424125 
L 123.068138 255.458439 
L 128.032352 253.270297 
L 132.996566 250.826258 
L 137.96078 248.086664 
L 141.683941 245.809953 
L 145.407101 243.317448 
L 149.130262 240.582633 
L 152.853422 237.575151 
L 156.576583 234.260231 
L 160.299744 230.598042 
L 164.022904 226.542992 
L 167.746065 222.042998 
L 171.469225 217.038776 
L 173.951332 213.389704 
L 176.433439 209.464985 
L 178.915546 205.241108 
L 181.397653 200.692999 
L 183.87976 195.794182 
L 186.361867 190.517057 
L 188.843974 184.833356 
L 191.326082 178.714837 
L 193.808189 172.134289 
L 196.290296 165.066955 
L 198.772403 157.492464 
L 201.25451 149.397416 
L 204.97767 136.275904 
L 208.700831 122.035981 
L 212.423991 106.849146 
L 223.593473 60.042686 
L 226.07558 50.841051 
L 228.557687 42.747311 
L 229.798741 39.224879 
L 231.039794 36.108692 
L 232.280848 33.438543 
L 233.521901 31.250828 
L 234.762955 29.577498 
L 236.004008 28.445087 
L 237.245062 27.873845 
L 238.486115 27.877041 
L 239.727169 28.460471 
L 240.968222 29.622203 
L 242.209276 31.352577 
L 243.450329 33.634461 
L 244.691383 36.443752 
L 245.932436 39.750089 
L 247.17349 43.517741 
L 249.655597 52.273378 
L 252.137704 62.357369 
L 254.619811 73.398548 
L 259.584025 96.952021 
L 265.789293 126.265718 
L 269.512453 142.657757 
L 273.235614 157.747947 
L 275.717721 167.019787 
L 278.199828 175.65203 
L 280.681935 183.656394 
L 283.164042 191.056077 
L 285.646149 197.881689 
L 288.128256 204.168151 
L 290.610363 209.952406 
L 293.09247 215.27178 
L 295.574577 220.162854 
L 298.056684 224.660725 
L 300.538791 228.798545 
L 303.020898 232.607281 
L 305.503005 236.115605 
L 307.985112 239.349902 
L 310.467219 242.334328 
L 314.19038 246.390122 
L 317.91354 249.998984 
L 321.636701 253.218115 
L 325.359861 256.096864 
L 329.083022 258.677767 
L 332.806183 260.997485 
L 336.529343 263.087645 
L 340.252504 264.97556 
L 345.216718 267.218552 
L 350.180932 269.191152 
L 355.145146 270.932768 
L 361.350413 272.834432 
L 367.555681 274.478623 
L 373.760949 275.907636 
L 381.20727 277.3862 
L 388.653591 278.651348 
L 397.340965 279.907132 
L 407.269394 281.107918 
L 418.438875 282.222282 
L 427.12625 282.950752 
L 427.12625 282.950752 
" style="fill:none;stroke:#18c0c4;stroke-linecap:round;stroke-width:1.5;"/>
   </g>
   <g id="patch_3">
    <path d="M 37.497498 295.704597 
L 37.497498 15.12 
" style="fill:none;"/>
   </g>
   <g id="patch_4">
    <path d="M 445.68 295.704597 
L 445.68 15.12 
" style="fill:none;"/>
   </g>
   <g id="patch_5">
    <path d="M 37.497498 295.704597 
L 445.68 295.704597 
" style="fill:none;"/>
   </g>
   <g id="patch_6">
    <path d="M 37.497498 15.12 
L 445.68 15.12 
" style="fill:none;"/>
   </g>
  </g>
 </g>
 <defs>
  <clipPath id="pda0151bcbf">
   <rect height="280.584597" width="408.182502" x="37.497498" y="15.12"/>
  </clipPath>
 </defs>
</svg>
