<?xml version="1.0" encoding="utf-8" standalone="no"?>
<!DOCTYPE svg PUBLIC "-//W3C//DTD SVG 1.1//EN"
  "http://www.w3.org/Graphics/SVG/1.1/DTD/svg11.dtd">
<svg height="345.6pt" version="1.1" viewBox="0 0 460.8 345.6" width="460.8pt" xmlns="http://www.w3.org/2000/svg" xmlns:xlink="http://www.w3.org/1999/xlink">
 <metadata>
  <rdf:RDF xmlns:cc="http://creativecommons.org/ns#" xmlns:dc="http://purl.org/dc/elements/1.1/" xmlns:rdf="http://www.w3.org/1999/02/22-rdf-syntax-ns#">
   <cc:Work>
    <dc:type rdf:resource="http://purl.org/dc/dcmitype/StillImage"/>
    <dc:date>2021-06-30T23:29:16.968219</dc:date>
    <dc:format>image/svg+xml</dc:format>
    <dc:creator>
     <cc:Agent>
      <dc:title>Matplotlib v3.4.2, https://matplotlib.org/</dc:title>
     </cc:Agent>
    </dc:creator>
   </cc:Work>
  </rdf:RDF>
 </metadata>
 <defs>
  <style type="text/css">*{stroke-linecap:butt;stroke-linejoin:round;}</style>
 </defs>
 <g id="figure_1">
  <g id="patch_1">
   <path d="M 0 345.6 
L 460.8 345.6 
L 460.8 0 
L 0 0 
z
" style="fill:#191919;"/>
  </g>
  <g id="axes_1">
   <g id="patch_2">
    <path d="M 44.471346 295.704597 
L 445.68 295.704597 
L 445.68 15.12 
L 44.471346 15.12 
z
" style="fill:#191919;"/>
   </g>
   <g id="matplotlib.axis_1">
    <g id="xtick_1">
     <g id="line2d_1">
      <path clip-path="url(#p4192bcb564)" d="M 87.023779 295.704597 
L 87.023779 15.12 
" style="fill:none;stroke:#343434;stroke-linecap:round;stroke-width:0.8;"/>
     </g>
     <g id="line2d_2"/>
     <g id="text_1">
      <!-- $\mathdefault{0.6}$ -->
      <g style="fill:#e6e6e6;" transform="translate(78.306469 308.890474)scale(0.14 -0.14)">
       <defs>
        <path d="M 1683 4416 
C 691 4416 186 3628 186 2077 
C 186 1326 320 680 544 366 
C 768 51 1126 -128 1523 -128 
C 2490 -128 2976 705 2976 2346 
C 2976 3749 2560 4416 1683 4416 
z
M 1568 4192 
C 2189 4192 2438 3564 2438 2025 
C 2438 661 2195 96 1606 96 
C 986 96 723 744 723 2308 
C 723 3660 960 4192 1568 4192 
z
" id="URWPalladioL-Roma-30" transform="scale(0.015625)"/>
        <path d="M 794 744 
C 602 744 429 564 429 372 
C 429 179 602 0 787 0 
C 992 0 1171 173 1171 372 
C 1171 564 992 744 794 744 
z
" id="URWPalladioL-Roma-2e" transform="scale(0.015625)"/>
        <path d="M 2662 4310 
L 2426 4419 
C 1811 4214 1549 4086 1222 3804 
C 563 3246 205 2464 205 1585 
C 205 526 717 -128 1542 -128 
C 2374 -128 2995 532 2995 1405 
C 2995 2143 2554 2624 1875 2624 
C 1555 2624 1363 2540 986 2239 
C 915 2181 909 2175 838 2124 
C 973 3284 1510 3913 2662 4259 
L 2662 4310 
z
M 1632 2239 
C 2118 2239 2445 1816 2445 1181 
C 2445 513 2118 83 1626 83 
C 1082 83 787 551 787 1412 
C 787 1636 813 1758 883 1867 
C 1024 2085 1325 2239 1632 2239 
z
" id="URWPalladioL-Roma-36" transform="scale(0.015625)"/>
       </defs>
       <use transform="scale(0.996264)" xlink:href="#URWPalladioL-Roma-30"/>
       <use transform="translate(49.8132 0)scale(0.996264)" xlink:href="#URWPalladioL-Roma-2e"/>
       <use transform="translate(74.719801 0)scale(0.996264)" xlink:href="#URWPalladioL-Roma-36"/>
      </g>
     </g>
    </g>
    <g id="xtick_2">
     <g id="line2d_3">
      <path clip-path="url(#p4192bcb564)" d="M 135.655131 295.704597 
L 135.655131 15.12 
" style="fill:none;stroke:#343434;stroke-linecap:round;stroke-width:0.8;"/>
     </g>
     <g id="line2d_4"/>
     <g id="text_2">
      <!-- $\mathdefault{0.8}$ -->
      <g style="fill:#e6e6e6;" transform="translate(126.937821 308.890474)scale(0.14 -0.14)">
       <defs>
        <path d="M 1075 2211 
C 813 2090 704 2019 563 1884 
C 320 1641 192 1352 192 1019 
C 192 359 723 -128 1446 -128 
C 2278 -128 2970 526 2970 1320 
C 2970 1833 2733 2109 2003 2442 
C 2586 2840 2790 3109 2790 3493 
C 2790 4044 2336 4416 1658 4416 
C 896 4416 339 3929 339 3257 
C 339 2821 512 2577 1075 2211 
z
M 1818 1891 
C 2221 1711 2464 1397 2464 1052 
C 2464 513 2061 90 1542 90 
C 998 90 646 475 646 1071 
C 646 1538 832 1833 1306 2122 
L 1818 1891 
z
M 1427 2712 
C 1024 2910 819 3167 819 3487 
C 819 3910 1126 4198 1581 4198 
C 2048 4198 2355 3891 2355 3422 
C 2355 3058 2195 2808 1779 2538 
L 1427 2712 
z
" id="URWPalladioL-Roma-38" transform="scale(0.015625)"/>
       </defs>
       <use transform="scale(0.996264)" xlink:href="#URWPalladioL-Roma-30"/>
       <use transform="translate(49.8132 0)scale(0.996264)" xlink:href="#URWPalladioL-Roma-2e"/>
       <use transform="translate(74.719801 0)scale(0.996264)" xlink:href="#URWPalladioL-Roma-38"/>
      </g>
     </g>
    </g>
    <g id="xtick_3">
     <g id="line2d_5">
      <path clip-path="url(#p4192bcb564)" d="M 184.286483 295.704597 
L 184.286483 15.12 
" style="fill:none;stroke:#343434;stroke-linecap:round;stroke-width:0.8;"/>
     </g>
     <g id="line2d_6"/>
     <g id="text_3">
      <!-- $\mathdefault{1.0}$ -->
      <g style="fill:#e6e6e6;" transform="translate(175.569173 308.890474)scale(0.14 -0.14)">
       <defs>
        <path d="M 429 3584 
L 493 3584 
L 1318 3956 
C 1325 3962 1331 3962 1338 3962 
C 1376 3962 1389 3905 1389 3751 
L 1389 613 
C 1389 276 1318 205 973 205 
L 614 205 
L 614 0 
C 1600 0 1600 0 1670 0 
C 1754 0 1894 0 2112 0 
C 2189 0 2413 0 2675 0 
L 2675 205 
L 2342 205 
C 1990 205 1926 276 1926 612 
L 1926 4443 
L 1837 4475 
C 1421 4257 966 4065 384 3860 
L 429 3584 
z
" id="URWPalladioL-Roma-31" transform="scale(0.015625)"/>
       </defs>
       <use transform="scale(0.996264)" xlink:href="#URWPalladioL-Roma-31"/>
       <use transform="translate(49.8132 0)scale(0.996264)" xlink:href="#URWPalladioL-Roma-2e"/>
       <use transform="translate(74.719801 0)scale(0.996264)" xlink:href="#URWPalladioL-Roma-30"/>
      </g>
     </g>
    </g>
    <g id="xtick_4">
     <g id="line2d_7">
      <path clip-path="url(#p4192bcb564)" d="M 232.917835 295.704597 
L 232.917835 15.12 
" style="fill:none;stroke:#343434;stroke-linecap:round;stroke-width:0.8;"/>
     </g>
     <g id="line2d_8"/>
     <g id="text_4">
      <!-- $\mathdefault{1.2}$ -->
      <g style="fill:#e6e6e6;" transform="translate(224.200525 308.890474)scale(0.14 -0.14)">
       <defs>
        <path d="M 102 160 
L 102 0 
C 1299 0 1299 0 1530 0 
C 1760 0 1760 0 2995 0 
C 2982 125 2982 186 2982 269 
C 2982 348 2982 407 2995 539 
C 2259 539 1965 539 781 539 
L 1946 1761 
C 2566 2414 2758 2763 2758 3238 
C 2758 3966 2259 4416 1446 4416 
C 986 4416 672 4288 358 3969 
L 250 3099 
L 435 3099 
L 518 3393 
C 621 3763 851 3923 1280 3923 
C 1830 3923 2182 3577 2182 3035 
C 2182 2555 1914 2083 1190 1316 
L 102 160 
z
" id="URWPalladioL-Roma-32" transform="scale(0.015625)"/>
       </defs>
       <use transform="scale(0.996264)" xlink:href="#URWPalladioL-Roma-31"/>
       <use transform="translate(49.8132 0)scale(0.996264)" xlink:href="#URWPalladioL-Roma-2e"/>
       <use transform="translate(74.719801 0)scale(0.996264)" xlink:href="#URWPalladioL-Roma-32"/>
      </g>
     </g>
    </g>
    <g id="xtick_5">
     <g id="line2d_9">
      <path clip-path="url(#p4192bcb564)" d="M 281.549187 295.704597 
L 281.549187 15.12 
" style="fill:none;stroke:#343434;stroke-linecap:round;stroke-width:0.8;"/>
     </g>
     <g id="line2d_10"/>
     <g id="text_5">
      <!-- $\mathdefault{1.4}$ -->
      <g style="fill:#e6e6e6;" transform="translate(272.831877 308.890474)scale(0.14 -0.14)">
       <defs>
        <path d="M 1792 1152 
L 1792 673 
C 1792 289 1722 199 1408 199 
L 1011 199 
L 1011 0 
C 1862 0 1862 0 2016 0 
C 2170 0 2170 0 3021 0 
L 3021 199 
L 2714 199 
C 2400 199 2330 282 2330 669 
L 2330 1152 
C 2707 1152 2842 1152 3021 1133 
L 3021 1588 
C 2720 1563 2598 1563 2502 1563 
L 2483 1563 
L 2330 1563 
L 2330 2457 
C 2330 3600 2342 4152 2374 4416 
L 2298 4448 
L 1824 4275 
L 13 1299 
L 83 1152 
L 1792 1152 
z
M 1792 1563 
L 416 1563 
L 1792 3826 
L 1792 1563 
z
" id="URWPalladioL-Roma-34" transform="scale(0.015625)"/>
       </defs>
       <use transform="scale(0.996264)" xlink:href="#URWPalladioL-Roma-31"/>
       <use transform="translate(49.8132 0)scale(0.996264)" xlink:href="#URWPalladioL-Roma-2e"/>
       <use transform="translate(74.719801 0)scale(0.996264)" xlink:href="#URWPalladioL-Roma-34"/>
      </g>
     </g>
    </g>
    <g id="xtick_6">
     <g id="line2d_11">
      <path clip-path="url(#p4192bcb564)" d="M 330.180539 295.704597 
L 330.180539 15.12 
" style="fill:none;stroke:#343434;stroke-linecap:round;stroke-width:0.8;"/>
     </g>
     <g id="line2d_12"/>
     <g id="text_6">
      <!-- $\mathdefault{1.6}$ -->
      <g style="fill:#e6e6e6;" transform="translate(321.463229 308.890474)scale(0.14 -0.14)">
       <use transform="scale(0.996264)" xlink:href="#URWPalladioL-Roma-31"/>
       <use transform="translate(49.8132 0)scale(0.996264)" xlink:href="#URWPalladioL-Roma-2e"/>
       <use transform="translate(74.719801 0)scale(0.996264)" xlink:href="#URWPalladioL-Roma-36"/>
      </g>
     </g>
    </g>
    <g id="xtick_7">
     <g id="line2d_13">
      <path clip-path="url(#p4192bcb564)" d="M 378.811891 295.704597 
L 378.811891 15.12 
" style="fill:none;stroke:#343434;stroke-linecap:round;stroke-width:0.8;"/>
     </g>
     <g id="line2d_14"/>
     <g id="text_7">
      <!-- $\mathdefault{1.8}$ -->
      <g style="fill:#e6e6e6;" transform="translate(370.094581 308.890474)scale(0.14 -0.14)">
       <use transform="scale(0.996264)" xlink:href="#URWPalladioL-Roma-31"/>
       <use transform="translate(49.8132 0)scale(0.996264)" xlink:href="#URWPalladioL-Roma-2e"/>
       <use transform="translate(74.719801 0)scale(0.996264)" xlink:href="#URWPalladioL-Roma-38"/>
      </g>
     </g>
    </g>
    <g id="xtick_8">
     <g id="line2d_15">
      <path clip-path="url(#p4192bcb564)" d="M 427.443243 295.704597 
L 427.443243 15.12 
" style="fill:none;stroke:#343434;stroke-linecap:round;stroke-width:0.8;"/>
     </g>
     <g id="line2d_16"/>
     <g id="text_8">
      <!-- $\mathdefault{2.0}$ -->
      <g style="fill:#e6e6e6;" transform="translate(418.725933 308.890474)scale(0.14 -0.14)">
       <use transform="scale(0.996264)" xlink:href="#URWPalladioL-Roma-32"/>
       <use transform="translate(49.8132 0)scale(0.996264)" xlink:href="#URWPalladioL-Roma-2e"/>
       <use transform="translate(74.719801 0)scale(0.996264)" xlink:href="#URWPalladioL-Roma-30"/>
      </g>
     </g>
    </g>
    <g id="text_9">
     <!-- $\omega$ -->
     <g style="fill:#e6e6e6;" transform="translate(238.849418 327.225557)scale(0.168 -0.168)">
      <defs>
       <path d="M 1440 3105 
C 1274 2983 986 2770 819 2616 
C 352 2186 96 1627 96 1138 
C 96 765 115 444 326 193 
C 467 26 614 -64 851 -64 
C 1037 -64 1280 39 1459 142 
C 1709 282 1837 411 2061 597 
C 2125 200 2387 -64 2752 -64 
C 3034 -64 3296 65 3603 354 
C 3878 618 4160 1022 4346 1427 
C 4506 1767 4614 2204 4614 2474 
C 4614 2847 4454 3104 4218 3104 
C 4128 3104 4064 3078 4006 3026 
L 3686 2721 
L 3757 2598 
C 3814 2637 3866 2656 3930 2656 
C 4109 2656 4198 2508 4198 2252 
C 4198 1297 3584 258 3021 258 
C 2707 258 2509 520 2509 943 
C 2509 1040 2509 1123 2547 1289 
L 2669 1783 
C 2694 1892 2733 1982 2771 2091 
L 2701 2181 
L 2285 2014 
L 2112 1232 
C 2035 1014 1971 745 1786 584 
C 1606 431 1421 328 1203 328 
C 1018 328 858 412 755 540 
C 621 688 582 920 582 1112 
C 582 1704 736 2224 1286 2745 
C 1357 2809 1478 2918 1542 2989 
L 1440 3105 
z
" id="PazoMath-Italic-77" transform="scale(0.015625)"/>
      </defs>
      <use transform="scale(0.996264)" xlink:href="#PazoMath-Italic-77"/>
     </g>
    </g>
   </g>
   <g id="matplotlib.axis_2">
    <g id="ytick_1">
     <g id="line2d_17">
      <path clip-path="url(#p4192bcb564)" d="M 44.471346 285.113667 
L 445.68 285.113667 
" style="fill:none;stroke:#343434;stroke-linecap:round;stroke-width:0.8;"/>
     </g>
     <g id="line2d_18"/>
     <g id="text_10">
      <!-- $\mathdefault{0}$ -->
      <g style="fill:#e6e6e6;" transform="translate(33.997498 289.956605)scale(0.14 -0.14)">
       <use transform="scale(0.996264)" xlink:href="#URWPalladioL-Roma-30"/>
      </g>
     </g>
    </g>
    <g id="ytick_2">
     <g id="line2d_19">
      <path clip-path="url(#p4192bcb564)" d="M 44.471346 247.707857 
L 445.68 247.707857 
" style="fill:none;stroke:#343434;stroke-linecap:round;stroke-width:0.8;"/>
     </g>
     <g id="line2d_20"/>
     <g id="text_11">
      <!-- $\mathdefault{1}$ -->
      <g style="fill:#e6e6e6;" transform="translate(33.997498 252.550795)scale(0.14 -0.14)">
       <use transform="scale(0.996264)" xlink:href="#URWPalladioL-Roma-31"/>
      </g>
     </g>
    </g>
    <g id="ytick_3">
     <g id="line2d_21">
      <path clip-path="url(#p4192bcb564)" d="M 44.471346 210.302047 
L 445.68 210.302047 
" style="fill:none;stroke:#343434;stroke-linecap:round;stroke-width:0.8;"/>
     </g>
     <g id="line2d_22"/>
     <g id="text_12">
      <!-- $\mathdefault{2}$ -->
      <g style="fill:#e6e6e6;" transform="translate(33.997498 215.144985)scale(0.14 -0.14)">
       <use transform="scale(0.996264)" xlink:href="#URWPalladioL-Roma-32"/>
      </g>
     </g>
    </g>
    <g id="ytick_4">
     <g id="line2d_23">
      <path clip-path="url(#p4192bcb564)" d="M 44.471346 172.896237 
L 445.68 172.896237 
" style="fill:none;stroke:#343434;stroke-linecap:round;stroke-width:0.8;"/>
     </g>
     <g id="line2d_24"/>
     <g id="text_13">
      <!-- $\mathdefault{3}$ -->
      <g style="fill:#e6e6e6;" transform="translate(33.997498 177.739175)scale(0.14 -0.14)">
       <defs>
        <path d="M 275 3197 
L 474 3197 
L 589 3554 
C 659 3770 1062 3987 1395 3987 
C 1811 3987 2150 3649 2150 3248 
C 2150 2770 1773 2368 1318 2368 
C 1267 2368 1197 2368 1114 2381 
L 1018 2381 
L 941 2047 
L 986 2008 
C 1229 2118 1350 2150 1523 2150 
C 2054 2150 2362 1809 2362 1222 
C 2362 566 1971 135 1376 135 
C 1082 135 819 231 627 411 
C 474 553 390 701 269 1049 
L 96 985 
C 230 593 282 361 320 39 
C 659 -77 941 -128 1178 -128 
C 1690 -128 2278 161 2630 593 
C 2848 857 2957 1140 2957 1442 
C 2957 1751 2829 2022 2598 2182 
C 2438 2298 2291 2350 1971 2407 
C 2483 2803 2675 3096 2675 3472 
C 2675 4040 2202 4416 1491 4416 
C 1056 4416 768 4295 461 3989 
L 275 3197 
z
" id="URWPalladioL-Roma-33" transform="scale(0.015625)"/>
       </defs>
       <use transform="scale(0.996264)" xlink:href="#URWPalladioL-Roma-33"/>
      </g>
     </g>
    </g>
    <g id="ytick_5">
     <g id="line2d_25">
      <path clip-path="url(#p4192bcb564)" d="M 44.471346 135.490427 
L 445.68 135.490427 
" style="fill:none;stroke:#343434;stroke-linecap:round;stroke-width:0.8;"/>
     </g>
     <g id="line2d_26"/>
     <g id="text_14">
      <!-- $\mathdefault{4}$ -->
      <g style="fill:#e6e6e6;" transform="translate(33.997498 140.333365)scale(0.14 -0.14)">
       <use transform="scale(0.996264)" xlink:href="#URWPalladioL-Roma-34"/>
      </g>
     </g>
    </g>
    <g id="ytick_6">
     <g id="line2d_27">
      <path clip-path="url(#p4192bcb564)" d="M 44.471346 98.084616 
L 445.68 98.084616 
" style="fill:none;stroke:#343434;stroke-linecap:round;stroke-width:0.8;"/>
     </g>
     <g id="line2d_28"/>
     <g id="text_15">
      <!-- $\mathdefault{5}$ -->
      <g style="fill:#e6e6e6;" transform="translate(33.997498 102.927555)scale(0.14 -0.14)">
       <defs>
        <path d="M 813 3877 
C 1638 3877 1997 3877 2765 3877 
L 2797 3907 
C 2784 4016 2784 4064 2784 4144 
C 2784 4229 2784 4277 2797 4386 
L 2765 4416 
C 2285 4416 1997 4416 1651 4416 
C 1299 4416 1018 4416 538 4416 
L 506 4403 
C 512 4011 518 3729 518 3523 
C 518 2977 499 2360 480 2077 
L 608 2038 
C 909 2341 1082 2432 1395 2432 
C 2010 2432 2394 1993 2394 1296 
C 2394 580 1984 160 1286 160 
C 941 160 621 277 531 444 
L 237 973 
L 83 883 
C 230 516 307 310 397 27 
C 576 -71 832 -128 1107 -128 
C 1536 -128 1990 59 2342 368 
C 2733 716 2938 1154 2938 1630 
C 2938 2359 2419 2874 1690 2874 
C 1382 2874 1152 2791 755 2554 
L 813 3877 
z
" id="URWPalladioL-Roma-35" transform="scale(0.015625)"/>
       </defs>
       <use transform="scale(0.996264)" xlink:href="#URWPalladioL-Roma-35"/>
      </g>
     </g>
    </g>
    <g id="ytick_7">
     <g id="line2d_29">
      <path clip-path="url(#p4192bcb564)" d="M 44.471346 60.678806 
L 445.68 60.678806 
" style="fill:none;stroke:#343434;stroke-linecap:round;stroke-width:0.8;"/>
     </g>
     <g id="line2d_30"/>
     <g id="text_16">
      <!-- $\mathdefault{6}$ -->
      <g style="fill:#e6e6e6;" transform="translate(33.997498 65.521744)scale(0.14 -0.14)">
       <use transform="scale(0.996264)" xlink:href="#URWPalladioL-Roma-36"/>
      </g>
     </g>
    </g>
    <g id="ytick_8">
     <g id="line2d_31">
      <path clip-path="url(#p4192bcb564)" d="M 44.471346 23.272996 
L 445.68 23.272996 
" style="fill:none;stroke:#343434;stroke-linecap:round;stroke-width:0.8;"/>
     </g>
     <g id="line2d_32"/>
     <g id="text_17">
      <!-- $\mathdefault{7}$ -->
      <g style="fill:#e6e6e6;" transform="translate(33.997498 28.115934)scale(0.14 -0.14)">
       <defs>
        <path d="M 358 32 
L 416 -51 
C 666 -32 666 -32 710 -32 
C 755 -32 755 -32 1005 -51 
C 1274 649 1587 1317 2010 2087 
L 3181 4199 
L 3181 4372 
C 2490 4372 2266 4372 1747 4372 
C 1280 4372 966 4372 346 4372 
L 282 4359 
C 301 3750 301 3750 301 3685 
C 301 3614 301 3614 282 3031 
L 474 3031 
L 518 3390 
C 570 3789 614 3840 909 3840 
L 2618 3840 
C 2362 3313 2163 2941 1920 2549 
L 358 32 
z
" id="URWPalladioL-Roma-37" transform="scale(0.015625)"/>
       </defs>
       <use transform="scale(0.996264)" xlink:href="#URWPalladioL-Roma-37"/>
      </g>
     </g>
    </g>
    <g id="text_18">
     <!-- Amplitude -->
     <g style="fill:#e6e6e6;" transform="translate(26.743055 190.373122)rotate(-90)scale(0.168 -0.168)">
      <defs>
       <path d="M 2272 4416 
L 1722 4416 
L 166 0 
L 653 0 
L 1101 1280 
L 2816 1280 
L 3270 0 
L 3827 0 
L 2272 4416 
z
M 2694 1637 
L 1222 1637 
C 1530 2528 1914 3638 1958 3925 
L 1965 3925 
C 2010 3663 2138 3281 2246 2956 
L 2694 1637 
z
" id="CMSS17-41" transform="scale(0.015625)"/>
       <path d="M 4288 1877 
C 4288 2308 4179 2816 3462 2816 
C 2982 2816 2694 2516 2566 2331 
C 2451 2670 2182 2816 1798 2816 
C 1363 2816 1088 2568 941 2389 
L 941 2758 
L 474 2758 
L 474 0 
L 960 0 
L 960 1559 
C 960 1939 1101 2428 1555 2428 
C 2138 2428 2138 2016 2138 1829 
L 2138 0 
L 2624 0 
L 2624 1559 
C 2624 1939 2765 2428 3219 2428 
C 3802 2428 3802 2016 3802 1829 
L 3802 0 
L 4288 0 
L 4288 1877 
z
" id="CMSS17-6d" transform="scale(0.015625)"/>
       <path d="M 966 333 
C 1178 129 1466 -5 1773 -5 
C 2368 -5 2880 603 2880 1412 
C 2880 2159 2496 2816 1946 2816 
C 1626 2816 1242 2702 954 2472 
L 954 2765 
L 480 2765 
L 480 -1216 
L 966 -1216 
L 966 333 
z
M 966 2100 
C 1018 2176 1235 2415 1587 2415 
C 2035 2415 2394 1960 2394 1412 
C 2394 787 1958 384 1530 384 
C 1402 384 1267 415 1139 523 
C 966 674 966 768 966 857 
L 966 2100 
z
" id="CMSS17-70" transform="scale(0.015625)"/>
       <path d="M 947 4416 
L 474 4416 
L 474 0 
L 947 0 
L 947 4416 
z
" id="CMSS17-6c" transform="scale(0.015625)"/>
       <path d="M 979 4183 
L 442 4183 
L 442 3648 
L 979 3648 
L 979 4183 
z
M 947 2739 
L 474 2739 
L 474 0 
L 947 0 
L 947 2739 
z
" id="CMSS17-69" transform="scale(0.015625)"/>
       <path d="M 1069 2368 
L 1901 2368 
L 1901 2737 
L 1069 2737 
L 1069 3520 
L 614 3520 
L 614 2737 
L 109 2737 
L 109 2368 
L 602 2368 
L 602 749 
C 602 384 685 -64 1107 -64 
C 1427 -64 1722 25 2003 172 
L 1901 548 
C 1747 414 1562 337 1363 337 
C 1082 337 1069 696 1069 856 
L 1069 2368 
z
" id="CMSS17-74" transform="scale(0.015625)"/>
       <path d="M 2618 2739 
L 2131 2739 
L 2131 972 
C 2131 498 1786 306 1421 306 
C 998 306 960 447 960 709 
L 960 2739 
L 474 2739 
L 474 678 
C 474 179 646 -64 1088 -64 
C 1306 -64 1798 -13 2144 306 
L 2144 0 
L 2618 0 
L 2618 2739 
z
" id="CMSS17-75" transform="scale(0.015625)"/>
       <path d="M 2611 4416 
L 2138 4416 
L 2138 2438 
C 1939 2603 1613 2756 1254 2756 
C 672 2756 211 2131 211 1347 
C 211 562 666 -64 1235 -64 
C 1677 -64 1971 172 2125 306 
L 2125 -13 
L 2611 -13 
L 2611 4416 
z
M 2125 836 
C 2125 747 2125 653 1926 482 
C 1798 375 1645 325 1498 325 
C 1152 325 698 576 698 1340 
C 698 2134 1210 2368 1562 2368 
C 1798 2368 1990 2254 2125 2065 
L 2125 836 
z
" id="CMSS17-64" transform="scale(0.015625)"/>
       <path d="M 2502 1377 
C 2502 1590 2490 2003 2285 2345 
C 2061 2713 1696 2816 1421 2816 
C 755 2816 192 2188 192 1375 
C 192 582 774 -64 1510 -64 
C 1798 -64 2150 19 2470 248 
C 2470 274 2458 414 2451 420 
C 2451 433 2432 630 2432 656 
C 2125 407 1773 325 1517 325 
C 1107 325 666 667 646 1377 
L 2502 1377 
z
M 698 1728 
C 781 2084 1062 2421 1421 2421 
C 1517 2421 1965 2421 2080 1728 
L 698 1728 
z
" id="CMSS17-65" transform="scale(0.015625)"/>
      </defs>
      <use transform="scale(0.996264)" xlink:href="#CMSS17-41"/>
      <use transform="translate(62.217855 0)scale(0.996264)" xlink:href="#CMSS17-6d"/>
      <use transform="translate(136.447109 0)scale(0.996264)" xlink:href="#CMSS17-70"/>
      <use transform="translate(184.652052 0)scale(0.996264)" xlink:href="#CMSS17-6c"/>
      <use transform="translate(206.832776 0)scale(0.996264)" xlink:href="#CMSS17-69"/>
      <use transform="translate(229.013499 0)scale(0.996264)" xlink:href="#CMSS17-74"/>
      <use transform="translate(262.845065 0)scale(0.996264)" xlink:href="#CMSS17-75"/>
      <use transform="translate(311.050008 0)scale(0.996264)" xlink:href="#CMSS17-64"/>
      <use transform="translate(359.254952 0)scale(0.996264)" xlink:href="#CMSS17-65"/>
     </g>
    </g>
   </g>
   <g id="line2d_33">
    <path clip-path="url(#p4192bcb564)" d="M 62.708103 232.35535 
L 68.807353 230.369607 
L 74.906603 228.122327 
L 79.786003 226.105814 
L 84.665402 223.864234 
L 89.544802 221.363044 
L 94.424202 218.560224 
L 98.083752 216.229586 
L 101.743302 213.674422 
L 105.402852 210.863933 
L 109.062402 207.761592 
L 112.721952 204.323838 
L 116.381502 200.498423 
L 120.041051 196.22234 
L 122.480751 193.084171 
L 124.920451 189.685519 
L 127.360151 185.996037 
L 129.799851 181.981039 
L 132.239551 177.60089 
L 134.679251 172.810358 
L 137.118951 167.558 
L 139.558651 161.785681 
L 141.998351 155.428417 
L 144.438051 148.414891 
L 146.877751 140.669232 
L 149.317451 132.115039 
L 151.757151 122.683267 
L 154.196851 112.326456 
L 156.63655 101.042897 
L 160.2961 82.597036 
L 166.39535 50.83846 
L 167.6152 45.154864 
L 168.83505 40.015234 
L 170.0549 35.58293 
L 171.27475 32.019856 
L 172.4946 29.473914 
L 173.71445 28.065314 
L 174.9343 27.873845 
L 176.15415 28.929522 
L 177.374 31.20858 
L 178.59385 34.635762 
L 179.8137 39.092439 
L 181.03355 44.428843 
L 183.47325 57.069405 
L 187.1328 78.544308 
L 190.79235 100.114103 
L 193.232049 113.592617 
L 195.671749 126.056169 
L 198.111449 137.433972 
L 200.551149 147.745365 
L 202.990849 157.057062 
L 205.430549 165.456619 
L 207.870249 173.037095 
L 210.309949 179.888803 
L 212.749649 186.095318 
L 215.189349 191.731904 
L 217.629049 196.86527 
L 220.068749 201.553994 
L 222.508449 205.849256 
L 224.948149 209.79567 
L 227.387848 213.432107 
L 229.827548 216.792465 
L 233.487098 221.379114 
L 237.146648 225.495332 
L 240.806198 229.211254 
L 244.465748 232.585255 
L 248.125298 235.666425 
L 251.784848 238.496557 
L 256.664248 241.941347 
L 261.543648 245.077896 
L 266.423047 247.972152 
L 272.522297 251.34517 
L 288.380347 259.910347 
L 292.039897 262.221225 
L 294.479597 263.97817 
L 296.919297 266.00977 
L 299.358997 268.445228 
L 301.798696 271.405381 
L 303.018546 273.015161 
L 304.238396 274.399217 
L 305.458246 274.701193 
L 306.678096 272.392633 
L 307.897946 266.367638 
L 309.117796 256.47656 
L 310.337646 244.099816 
L 311.557496 234.116368 
L 312.777346 231.04485 
L 313.997196 233.06242 
L 316.436896 240.066551 
L 317.656746 243.009798 
L 318.876596 245.446457 
L 320.096446 247.46542 
L 321.316296 249.156833 
L 322.536146 250.593677 
L 324.975846 252.912072 
L 327.415546 254.719004 
L 329.855246 256.185909 
L 332.294946 257.415686 
L 335.954496 258.951153 
L 339.614045 260.228058 
L 344.493445 261.657402 
L 350.592695 263.145119 
L 356.691945 264.404401 
L 364.011045 265.702981 
L 372.549995 267.004882 
L 383.528644 268.432871 
L 395.727144 269.780214 
L 410.365343 271.150226 
L 426.223393 272.405023 
L 427.443243 272.493366 
L 427.443243 272.493366 
" style="fill:none;stroke:#18c0c4;stroke-linecap:round;stroke-width:1.5;"/>
   </g>
   <g id="line2d_34">
    <path clip-path="url(#p4192bcb564)" d="M 62.708103 277.200018 
L 74.906603 276.333824 
L 85.885252 275.325562 
L 94.424202 274.336334 
L 101.743302 273.297334 
L 109.062402 272.025894 
L 115.161652 270.7346 
L 120.041051 269.506672 
L 124.920451 268.060284 
L 129.799851 266.33977 
L 133.459401 264.826041 
L 137.118951 263.077665 
L 140.778501 261.046118 
L 144.438051 258.672776 
L 146.877751 256.867236 
L 149.317451 254.857649 
L 151.757151 252.622425 
L 154.196851 250.143158 
L 156.63655 247.409738 
L 160.2961 242.8553 
L 168.83505 231.56677 
L 170.0549 230.221933 
L 171.27475 229.048851 
L 172.4946 228.084017 
L 173.71445 227.358784 
L 174.9343 226.896317 
L 176.15415 226.709168 
L 177.374 226.797973 
L 178.59385 227.151535 
L 179.8137 227.748265 
L 181.03355 228.558654 
L 183.47325 230.680721 
L 185.91295 233.233838 
L 194.451899 242.578091 
L 198.111449 246.019182 
L 200.551149 248.052249 
L 202.990849 249.883256 
L 206.650399 252.280991 
L 210.309949 254.308283 
L 213.969499 256.017813 
L 217.629049 257.455945 
L 221.288599 258.661363 
L 224.948149 259.665385 
L 229.827548 260.732847 
L 234.706948 261.529401 
L 239.586348 262.084167 
L 244.465748 262.413831 
L 249.345148 262.523613 
L 254.224548 262.406987 
L 259.103948 262.043865 
L 262.763498 261.587955 
L 266.423047 260.948085 
L 270.082597 260.088845 
L 273.742147 258.959267 
L 276.181847 258.02061 
L 278.621547 256.899139 
L 281.061247 255.554662 
L 283.500947 253.93298 
L 285.940647 251.959452 
L 288.380347 249.528655 
L 289.600197 248.096397 
L 290.820047 246.487138 
L 292.039897 244.669298 
L 293.259747 242.603333 
L 294.479597 240.239115 
L 295.699447 237.512242 
L 296.919297 234.338745 
L 298.139147 230.607373 
L 299.358997 226.168119 
L 300.578846 220.814943 
L 301.798696 214.259442 
L 303.018546 206.090974 
L 304.238396 195.718826 
L 305.458246 182.301895 
L 306.678096 164.726674 
L 307.897946 141.934049 
L 309.117796 114.691014 
L 310.337646 90.687808 
L 311.557496 86.580772 
L 312.777346 107.56396 
L 313.997196 137.781069 
L 315.217046 164.720254 
L 316.436896 185.655924 
L 317.656746 201.488951 
L 318.876596 213.566615 
L 320.096446 222.955164 
L 321.316296 230.404002 
L 322.536146 236.428228 
L 323.755996 241.384464 
L 324.975846 245.523857 
L 326.195696 249.026816 
L 327.415546 252.025526 
L 328.635396 254.61867 
L 329.855246 256.881203 
L 331.075096 258.870964 
L 333.514796 262.203911 
L 335.954496 264.880342 
L 338.394195 267.0725 
L 340.833895 268.897715 
L 343.273595 270.438554 
L 345.713295 271.75474 
L 349.372845 273.401518 
L 353.032395 274.746856 
L 356.691945 275.863699 
L 361.571345 277.084072 
L 366.450745 278.072753 
L 372.549995 279.068371 
L 379.869094 280.006681 
L 388.408044 280.851134 
L 398.166844 281.586817 
L 410.365343 282.272685 
L 425.003543 282.868957 
L 427.443243 282.950752 
L 427.443243 282.950752 
" style="fill:none;stroke:#f62196;stroke-linecap:round;stroke-width:1.5;"/>
   </g>
   <g id="patch_3">
    <path d="M 44.471346 295.704597 
L 44.471346 15.12 
" style="fill:none;"/>
   </g>
   <g id="patch_4">
    <path d="M 445.68 295.704597 
L 445.68 15.12 
" style="fill:none;"/>
   </g>
   <g id="patch_5">
    <path d="M 44.471346 295.704597 
L 445.68 295.704597 
" style="fill:none;"/>
   </g>
   <g id="patch_6">
    <path d="M 44.471346 15.12 
L 445.68 15.12 
" style="fill:none;"/>
   </g>
  </g>
 </g>
 <defs>
  <clipPath id="p4192bcb564">
   <rect height="280.584597" width="401.208654" x="44.471346" y="15.12"/>
  </clipPath>
 </defs>
</svg>
