<?xml version="1.0" encoding="UTF-8" standalone="no"?>
<!-- Created with matplotlib (https://matplotlib.org/) -->

<svg
   xmlns:dc="http://purl.org/dc/elements/1.1/"
   xmlns:cc="http://creativecommons.org/ns#"
   xmlns:rdf="http://www.w3.org/1999/02/22-rdf-syntax-ns#"
   xmlns:svg="http://www.w3.org/2000/svg"
   xmlns="http://www.w3.org/2000/svg"
   xmlns:sodipodi="http://sodipodi.sourceforge.net/DTD/sodipodi-0.dtd"
   xmlns:inkscape="http://www.inkscape.org/namespaces/inkscape"
   height="267.112pt"
   version="1.1"
   viewBox="0 0 415.33583 267.11199"
   width="415.33582pt"
   id="svg339"
   sodipodi:docname="PotentialsFull.svg"
   inkscape:version="0.92.3 (2405546, 2018-03-11)">
  <sodipodi:namedview
     pagecolor="#ffffff"
     bordercolor="#666666"
     borderopacity="1"
     objecttolerance="10"
     gridtolerance="10"
     guidetolerance="10"
     inkscape:pageopacity="0"
     inkscape:pageshadow="2"
     inkscape:window-width="2560"
     inkscape:window-height="1375"
     id="namedview341"
     showgrid="false"
     inkscape:zoom="2.5737174"
     inkscape:cx="258.14009"
     inkscape:cy="176.47335"
     inkscape:window-x="0"
     inkscape:window-y="0"
     inkscape:window-maximized="1"
     inkscape:current-layer="g1971"
     fit-margin-top="0"
     fit-margin-left="0"
     fit-margin-right="0"
     fit-margin-bottom="0" />
  <metadata
     id="metadata2">
    <rdf:RDF>
      <cc:Work>
        <dc:type
           rdf:resource="http://purl.org/dc/dcmitype/StillImage" />
        <dc:date>2021-05-11T15:54:24.740632</dc:date>
        <dc:format>image/svg+xml</dc:format>
        <dc:creator>
          <cc:Agent>
            <dc:title>Matplotlib v3.3.0, https://matplotlib.org/</dc:title>
          </cc:Agent>
        </dc:creator>
        <dc:title></dc:title>
      </cc:Work>
    </rdf:RDF>
  </metadata>
  <defs
     id="defs6"
     style="stroke-linecap:butt;stroke-linejoin:round">
    <marker
       inkscape:stockid="Arrow1Mstart"
       orient="auto"
       refY="0"
       refX="0"
       id="marker1511"
       style="overflow:visible;stroke-linecap:butt;stroke-linejoin:round"
       inkscape:isstock="true">
      <path
         id="path1033"
         d="M 0,0 5,-5 -12.5,0 5,5 Z"
         style="fill:#f62196;fill-opacity:1;fill-rule:evenodd;stroke:#f62196;stroke-width:1.00000003pt;stroke-linecap:butt;stroke-linejoin:round;stroke-opacity:1"
         transform="matrix(0.4,0,0,0.4,4,0)"
         inkscape:connector-curvature="0" />
    </marker>
    <marker
       inkscape:stockid="Arrow1Lend"
       orient="auto"
       refY="0"
       refX="0"
       id="marker2134"
       style="overflow:visible;stroke-linecap:butt;stroke-linejoin:round"
       inkscape:isstock="true">
      <path
         id="path2132"
         d="M 0,0 5,-5 -12.5,0 5,5 Z"
         style="fill:#d3d7cf;fill-opacity:1;fill-rule:evenodd;stroke:#d3d7cf;stroke-width:1.00000003pt;stroke-linecap:butt;stroke-linejoin:round;stroke-opacity:1"
         transform="matrix(-0.8,0,0,-0.8,-10,0)"
         inkscape:connector-curvature="0" />
    </marker>
    <marker
       inkscape:stockid="Arrow2Mend"
       orient="auto"
       refY="0"
       refX="0"
       id="Arrow2Mend"
       style="overflow:visible;stroke-linecap:butt;stroke-linejoin:round"
       inkscape:isstock="true">
      <path
         id="path1329"
         style="fill:#a267f5;fill-opacity:1;fill-rule:evenodd;stroke:#a267f5;stroke-width:0.625;stroke-linecap:butt;stroke-linejoin:round;stroke-opacity:1"
         d="M 8.7185878,4.0337352 -2.2072895,0.01601326 8.7185884,-4.0017078 c -1.7454984,2.3720609 -1.7354408,5.6174519 -6e-7,8.035443 z"
         transform="scale(-0.6)"
         inkscape:connector-curvature="0" />
    </marker>
    <marker
       inkscape:stockid="Arrow1Mend"
       orient="auto"
       refY="0"
       refX="0"
       id="marker1706"
       style="overflow:visible;stroke-linecap:butt;stroke-linejoin:round"
       inkscape:isstock="true">
      <path
         id="path1704"
         d="M 0,0 5,-5 -12.5,0 5,5 Z"
         style="fill:#000000;fill-opacity:1;fill-rule:evenodd;stroke:#000000;stroke-width:1.00000003pt;stroke-linecap:butt;stroke-linejoin:round;stroke-opacity:1"
         transform="matrix(-0.4,0,0,-0.4,-4,0)"
         inkscape:connector-curvature="0" />
    </marker>
    <marker
       inkscape:stockid="Arrow1Lend"
       orient="auto"
       refY="0"
       refX="0"
       id="Arrow1Lend"
       style="overflow:visible;stroke-linecap:butt;stroke-linejoin:round"
       inkscape:isstock="true">
      <path
         id="path1305"
         d="M 0,0 5,-5 -12.5,0 5,5 Z"
         style="fill:#000000;fill-opacity:1;fill-rule:evenodd;stroke:#000000;stroke-width:1.00000003pt;stroke-linecap:butt;stroke-linejoin:round;stroke-opacity:1"
         transform="matrix(-0.8,0,0,-0.8,-10,0)"
         inkscape:connector-curvature="0" />
    </marker>
    <marker
       inkscape:stockid="Arrow1Mend"
       orient="auto"
       refY="0"
       refX="0"
       id="Arrow1Mend"
       style="overflow:visible;stroke-linecap:butt;stroke-linejoin:round"
       inkscape:isstock="true">
      <path
         id="path1311"
         d="M 0,0 5,-5 -12.5,0 5,5 Z"
         style="fill:#f62196;fill-opacity:1;fill-rule:evenodd;stroke:#f62196;stroke-width:1.00000003pt;stroke-linecap:butt;stroke-linejoin:round;stroke-opacity:1"
         transform="matrix(-0.4,0,0,-0.4,-4,0)"
         inkscape:connector-curvature="0" />
    </marker>
    <marker
       inkscape:stockid="Arrow1Mstart"
       orient="auto"
       refY="0"
       refX="0"
       id="Arrow1Mstart"
       style="overflow:visible;stroke-linecap:butt;stroke-linejoin:round"
       inkscape:isstock="true">
      <path
         id="path1308"
         d="M 0,0 5,-5 -12.5,0 5,5 Z"
         style="fill:#000000;fill-opacity:1;fill-rule:evenodd;stroke:#000000;stroke-width:1.00000003pt;stroke-linecap:butt;stroke-linejoin:round;stroke-opacity:1"
         transform="matrix(0.4,0,0,0.4,4,0)"
         inkscape:connector-curvature="0" />
    </marker>
    <style
       type="text/css"
       id="style4">*{stroke-linecap:butt;stroke-linejoin:round;}</style>
    <clipPath
       clipPathUnits="userSpaceOnUse"
       id="clipPath1268"
       style="stroke-linecap:butt;stroke-linejoin:round">
      <rect
         id="rect1270"
         y="107.472"
         x="57.599998"
         width="357.12"
         height="200.11201"
         style="stroke-width:0.86717016;stroke-linecap:butt;stroke-linejoin:round" />
    </clipPath>
  </defs>
  <g
     id="figure_1"
     style="stroke-linecap:butt;stroke-linejoin:round"
     transform="translate(-27.535496,-40.972)">
    <g
       id="axes_1"
       style="stroke-linecap:butt;stroke-linejoin:round">
      <rect
         style="opacity:1;fill:#191919;fill-opacity:1;fill-rule:nonzero;stroke:none;stroke-width:5.28661442;stroke-linecap:round;stroke-linejoin:miter;stroke-miterlimit:4;stroke-dasharray:none;stroke-dashoffset:0;stroke-opacity:1;paint-order:markers fill stroke"
         id="rect921"
         width="423.12338"
         height="276.83694"
         x="22.87298"
         y="35.326782" />
      <g
         id="patch_2"
         style="stroke-linecap:butt;stroke-linejoin:round" />
      <g
         id="line2d_19"
         style="fill:none;fill-opacity:1;stroke:#d3d7cf;stroke-linecap:butt;stroke-linejoin:round;stroke-opacity:1">
        <path
           clip-path="url(#p95e0666dc2)"
           d="M 57.6,174.528 H 414.72"
           style="fill:none;fill-opacity:1;stroke:#d3d7cf;stroke-width:1;stroke-linecap:square;stroke-linejoin:round;stroke-miterlimit:4;stroke-dasharray:none;stroke-opacity:1;marker-end:url(#marker2134)"
           id="path317"
           inkscape:connector-curvature="0" />
      </g>
      <g
         id="line2d_17"
         style="stroke-linecap:butt;stroke-linejoin:round">
        <path
           clip-path="url(#p95e0666dc2)"
           d="m 79.864895,-1 0.792402,50.426837 0.974939,52.010163 0.974938,42.80342 0.974939,35.06719 0.974939,28.56692 0.974938,23.10654 0.974939,18.52185 0.974938,14.67521 0.974939,11.45104 0.974938,8.7522 0.974939,6.49691 0.974939,4.61626 0.649959,2.19115 0.649959,1.57835 0.649959,1.03827 0.649959,0.56317 0.649959,0.14617 0.649959,-0.21894 0.649959,-0.5377 0.649959,-0.81503 0.974939,-1.66276 0.974938,-2.09604 1.299918,-3.31297 1.949881,-5.73456 2.92481,-9.49436 5.84963,-19.15762 2.92482,-8.81905 2.59984,-7.22304 2.59983,-6.6108 2.59984,-6.00451 2.59983,-5.42487 2.59984,-4.88316 2.59984,-4.38455 2.59983,-3.93048 2.59984,-3.52006 2.59983,-3.15105 2.59984,-2.82053 2.92482,-2.82177 2.92481,-2.49317 2.92482,-2.2047 3.24979,-2.15422 3.2498,-1.88399 3.57477,-1.80369 3.57478,-1.56232 3.89975,-1.47024 4.22474,-1.36006 4.54971,-1.2389 5.19967,-1.18031 5.84963,-1.08558 6.49959,-0.96874 7.47453,-0.87585 8.44947,-0.75949 10.07437,-0.67323 12.02424,-0.5728 14.94906,-0.48123 19.49877,-0.39243 26.64832,-0.29979 40.62244,-0.21336 66.6208,-0.12236 v 0"
           style="fill:none;stroke:#18c0c4;stroke-width:1.5;stroke-linecap:square;stroke-linejoin:round;stroke-opacity:1"
           id="path311"
           inkscape:connector-curvature="0" />
      </g>
      <path
         inkscape:connector-curvature="0"
         id="path314"
         style="fill:none;stroke:#ffe46b;stroke-width:1.5;stroke-linecap:square;stroke-linejoin:round;stroke-opacity:1"
         d="m 80.998595,-1 0.95862,55.931413 0.974939,46.319067 0.974939,37.43079 0.974938,30.00392 0.974939,23.80356 0.974938,18.63321 0.974939,14.32835 0.974938,10.75106 0.974939,7.78554 0.649959,3.80046 0.649959,2.84449 0.649959,2.00584 0.649959,1.27171 0.649959,0.63067 0.32498,0.10122 0.324979,-0.0287 0.649959,-0.41185 0.649959,-0.83055 0.649959,-1.19085 0.974939,-2.34988 1.299918,-3.95652 1.624898,-5.87035 2.27486,-9.19785 6.82457,-28.20057 2.59983,-9.62238 2.27486,-7.66288 2.27486,-6.92789 2.27485,-6.2027 2.27486,-5.50895 2.27486,-4.859 1.94987,-3.68537 1.94988,-3.27743 1.94988,-2.90224 1.94987,-2.5589 2.27486,-2.59191 2.27486,-2.21114 2.27485,-1.87204 2.27486,-1.57099 2.27486,-1.30435 2.27485,-1.06875 2.59984,-0.96847 2.59984,-0.73381 2.92481,-0.58508 3.2498,-0.39787 3.24979,-0.17718 3.89976,0.024 4.22473,0.25661 4.87469,0.52223 5.84964,0.85577 7.47452,1.32779 11.37429,2.27133 26.9733,5.44224 13.64914,2.4884 13.32416,2.19947 13.32416,1.97488 13.97412,1.84648 14.94906,1.74626 15.92399,1.63174 17.22392,1.53689 18.84881,1.45237 20.47371,1.35143 22.74857,1.27523 10.72432,0.53155 v 0"
         clip-path="url(#p95e0666dc2)" />
      <path
         sodipodi:nodetypes="cccccccccccccccccccccccccccccccccccccccccccccccccccccccccccccccccc"
         id="path1240"
         style="fill:none;stroke:#f62196;stroke-width:1.5;stroke-linecap:square;stroke-linejoin:round;stroke-opacity:1"
         d="m 80.998595,-1 0.775419,45.24241 0.183201,10.689003 0.974939,46.319067 0.974939,37.43079 0.974938,30.00392 0.974939,23.80356 0.974938,18.63321 0.974939,14.32835 0.974938,10.75106 0.974939,7.78554 0.649959,3.80046 0.649959,2.84449 0.649959,2.00584 0.649959,1.27171 0.649959,0.63067 0.32498,0.10122 0.324979,-0.0287 0.649959,-0.41185 0.649959,-0.83055 0.649959,-1.19085 0.974939,-2.34988 1.299918,-3.95652 1.624898,-5.87035 2.27486,-9.19785 6.82457,-28.20057 2.59983,-9.62238 2.27486,-7.66288 2.27486,-6.92789 2.27485,-6.2027 2.27486,-5.50895 2.27486,-4.859 1.94987,-3.68537 1.94988,-3.27743 1.94988,-2.90224 1.94987,-2.5589 2.27486,-2.59191 2.27486,-2.21114 2.27485,-1.87204 2.27486,-1.57099 2.27486,-1.30435 2.27485,-1.06875 2.59984,-0.96847 2.59984,-0.73381 2.92481,-0.58508 3.2498,-0.39787 3.24979,-0.17718 3.89976,0.024 4.22473,0.25661 4.87469,0.52223 5.84964,0.85577 7.47452,1.32779 11.37429,2.27133 26.9733,5.44224 13.64914,2.4884 13.32416,2.19947 13.32416,1.97488 13.97412,1.84648 14.94906,1.74626 15.92399,1.63174 17.22392,1.53689 18.84881,1.45237 20.47371,1.35143 22.74857,1.27523 10.72432,0.53155 v 0"
         clip-path="url(#clipPath1268)"
         inkscape:connector-curvature="0"
         transform="translate(0,-66)" />
      <g
         id="patch_3"
         style="stroke-width:0.5;stroke-linecap:butt;stroke-linejoin:round;stroke-miterlimit:4;stroke-dasharray:none;fill:#d3d7cf;stroke:#d3d7cf">
        <path
           d="M 57.6,307.584 V 41.472"
           style="fill:#d3d7cf;stroke:#d3d7cf;stroke-width:1;stroke-linecap:square;stroke-linejoin:miter;stroke-miterlimit:4;stroke-dasharray:none"
           id="path320"
           inkscape:connector-curvature="0" />
      </g>
      <g
         id="patch_4"
         style="stroke-linecap:butt;stroke-linejoin:round" />
      <g
         aria-label="Barrier"
         style="font-style:normal;font-variant:normal;font-weight:normal;font-stretch:normal;font-size:14px;line-height:125%;font-family:'CMU Sans Serif';-inkscape-font-specification:'CMU Sans Serif';letter-spacing:0px;word-spacing:0px;fill:#ffe46b;fill-opacity:1;stroke:none;stroke-width:0.75px;stroke-linecap:butt;stroke-linejoin:miter;stroke-opacity:1"
         id="text1274">
        <path
           d="m 141.04784,136.21785 3.31764,-1.02375 c 0.22742,-0.0702 0.45484,-0.14036 0.674,-0.23729 1.47964,-0.61774 2.52117,-2.03799 2.10837,-3.37575 -0.38804,-1.25749 -1.9406,-1.73074 -3.34441,-1.53198 1.41871,-0.86267 1.8594,-1.951 1.59933,-2.79379 -0.28896,-0.93643 -1.6547,-2.03874 -4.24995,-1.2379 l -2.96982,0.91642 z m 0.89255,-1.0959 -0.97834,-3.17049 -0.13936,-0.49909 1.59193,-0.49124 c 0.22742,-0.0702 0.45071,-0.15373 0.68639,-0.19715 1.29464,-0.26764 2.63615,0.13888 2.94575,1.1422 0.21878,0.70901 -0.18674,2.00626 -2.20675,2.62959 z m -1.38701,-4.49487 -0.87102,-2.82266 -0.1311,-0.47235 1.52504,-0.47059 c 2.06015,-0.63572 3.07563,0.0912 3.27377,0.7333 0.24768,0.80266 -0.41217,1.98792 -2.19139,2.53694 z"
           style="fill:#ffe46b;fill-opacity:1;stroke-width:0.75px;stroke-linecap:butt;stroke-linejoin:round"
           id="path1321" />
        <path
           d="m 149.03177,132.2093 c 0.11678,0.63332 0.72783,1.63106 1.88433,1.41782 1.51447,-0.27925 2.15747,-1.03843 2.1687,-1.05474 l 0.0889,0.48188 1.04636,-0.19293 -0.77428,-4.19922 c -0.28208,-1.14381 -1.37354,-1.96755 -2.68149,-1.72638 -0.86738,0.15993 -1.46009,0.49699 -2.04987,1.00435 l 0.2527,0.90722 c 0.39595,-0.40044 0.90312,-0.89256 1.93572,-1.08296 0.17898,-0.033 0.53948,-0.0852 0.94353,0.25311 0.42036,0.34957 0.50667,0.81768 0.59152,1.20064 l 0.0863,0.46811 c -1.41555,0.27524 -3.76147,1.0637 -3.49238,2.5231 z m 1.00252,-0.19909 c -0.15993,-0.86738 1.63312,-1.41153 2.62187,-1.60808 l 0.15993,0.86738 c 0.16501,0.89491 -0.74943,1.26283 -1.34145,1.37199 -0.74347,0.13708 -1.34896,-0.13564 -1.44035,-0.63129 z"
           style="fill:#ffe46b;fill-opacity:1;stroke-width:0.75px;stroke-linecap:butt;stroke-linejoin:round"
           id="path1323" />
        <path
           d="m 156.09254,132.68554 1.0475,-0.0723 -0.19859,-2.87715 c -0.14075,-2.03915 1.37678,-2.62103 2.19889,-2.70584 l -0.0646,-0.93577 c -1.47855,0.13012 -2.15323,1.13095 -2.3526,1.49555 l -0.0868,-1.25701 -0.97768,0.0675 z"
           style="fill:#ffe46b;fill-opacity:1;stroke-width:0.75px;stroke-linecap:butt;stroke-linejoin:round"
           id="path1325" />
        <path
           d="m 160.87179,132.46961 1.04981,0.0203 0.0558,-2.88346 c 0.0395,-2.04362 1.60245,-2.48947 2.42884,-2.50149 l 0.0182,-0.93782 c -1.48427,-7.1e-4 -2.24454,0.93675 -2.47527,1.28235 l 0.0244,-1.25976 -0.97982,-0.019 z"
           style="fill:#ffe46b;fill-opacity:1;stroke-width:0.75px;stroke-linecap:butt;stroke-linejoin:round"
           id="path1327" />
        <path
           d="m 165.65006,132.65376 1.04719,0.0767 0.45521,-6.21334 -1.0472,-0.0767 z m 0.50579,-8.24508 1.25663,0.0921 0.091,-1.24267 -1.25663,-0.0921 z"
           style="fill:#ffe46b;fill-opacity:1;stroke-width:0.75px;stroke-linecap:butt;stroke-linejoin:round"
           id="path1330" />
        <path
           d="m 168.66073,129.70939 c -0.18882,1.7257 0.84988,3.43079 2.673,3.63027 0.87677,0.0959 1.63395,-0.13105 2.27654,-0.46917 l 0.017,-0.92765 c -0.66107,0.37834 -1.32236,0.62991 -2.19913,0.53397 -1.05768,-0.11573 -1.90353,-1.13779 -1.80236,-2.57733 l 4.31425,0.47206 0.0442,-0.40359 c 0.13514,-2.39351 -1.16628,-3.11333 -2.15439,-3.22145 -1.47519,-0.16141 -2.96502,1.09802 -3.16907,2.96289 z m 1.11839,-0.56773 c 0.2277,-0.66518 0.89859,-1.64804 1.95627,-1.53231 0.40359,0.0442 1.42757,0.33929 1.49513,1.90996 z"
           style="fill:#ffe46b;fill-opacity:1;stroke-width:0.75px;stroke-linecap:butt;stroke-linejoin:round"
           id="path1332" />
        <path
           d="m 175.13679,133.64399 1.04133,0.1347 0.36997,-2.86017 c 0.26221,-2.02711 1.86443,-2.29983 2.6872,-2.22163 l 0.12033,-0.93025 c -1.47533,-0.16261 -2.33333,0.68634 -2.60038,1.00471 l 0.16164,-1.24958 -0.9719,-0.12572 z"
           style="fill:#ffe46b;fill-opacity:1;stroke-width:0.75px;stroke-linecap:butt;stroke-linejoin:round"
           id="path1334" />
      </g>
      <g
         aria-label="Well"
         style="font-style:normal;font-variant:normal;font-weight:normal;font-stretch:normal;font-size:14px;line-height:125%;font-family:'CMU Sans Serif';-inkscape-font-specification:'CMU Sans Serif';letter-spacing:0px;word-spacing:0px;fill:#18c0c4;fill-opacity:1;stroke:none;stroke-width:0.75px;stroke-linecap:butt;stroke-linejoin:miter;stroke-opacity:1"
         id="text1278">
        <path
           d="m 104.70048,292.27293 10.0754,1.02163 0.42264,-1.03719 -4.43868,-3.50191 c -0.0206,-0.0235 -2.19869,-1.72743 -2.74801,-2.01174 0.71644,0.171 0.71644,0.171 3.63889,0.5304 l 5.34934,0.56221 0.45963,-1.12794 -7.92518,-6.29835 -0.38038,0.93347 4.63266,3.65655 c 0.12677,0.097 2.00471,1.57279 2.55931,1.84414 l -0.35822,-0.0855 -1.1246,-0.17103 -1.55342,-0.19459 -5.95199,-0.6415 -0.43321,1.06313 4.63027,3.62533 c 0.76059,0.58205 2.01527,1.54686 2.57756,1.83646 -0.59687,-0.16763 -1.52941,-0.29063 -3.08283,-0.48522 l -5.88955,-0.64629 z"
           style="fill:#18c0c4;fill-opacity:1;stroke-width:0.75px;stroke-linecap:butt;stroke-linejoin:round"
           id="path1350" />
        <path
           d="m 115.62045,282.69123 c 1.63009,0.59706 3.53449,-0.003 4.16525,-1.72466 0.30335,-0.8282 0.26452,-1.61772 0.0903,-2.32263 l -0.89652,-0.23891 c 0.20881,0.7325 0.29449,1.43481 -0.009,2.26301 -0.36594,0.99909 -1.561,1.57522 -2.93429,1.13186 l 1.49265,-4.07524 -0.38123,-0.13964 c -2.29129,-0.70505 -3.30214,0.38584 -3.64401,1.3192 -0.51039,1.39347 0.35511,3.1418 2.11667,3.78701 z m -0.28303,-1.22188 c -0.59119,-0.38054 -1.38453,-1.26751 -1.01859,-2.2666 0.13963,-0.38123 0.67166,-1.30458 2.21271,-0.9936 z"
           style="fill:#18c0c4;fill-opacity:1;stroke-width:0.75px;stroke-linecap:butt;stroke-linejoin:round"
           id="path1352" />
        <path
           d="m 120.92069,277.3203 0.34399,-0.99205 -9.55019,-3.31143 -0.34399,0.99205 z"
           style="fill:#18c0c4;fill-opacity:1;stroke-width:0.75px;stroke-linecap:butt;stroke-linejoin:round"
           id="path1354" />
        <path
           d="m 122.00121,274.16802 0.33422,-0.99538 -9.58225,-3.21747 -0.33423,0.99539 z"
           style="fill:#18c0c4;fill-opacity:1;stroke-width:0.75px;stroke-linecap:butt;stroke-linejoin:round"
           id="path1356" />
      </g>
      <g
         aria-label="Closed Channel"
         style="font-style:normal;font-variant:normal;font-weight:normal;font-stretch:normal;font-size:14px;line-height:125%;font-family:'CMU Sans Serif';-inkscape-font-specification:'CMU Sans Serif';letter-spacing:0px;word-spacing:0px;fill:#f62196;fill-opacity:1;stroke:none;stroke-width:0.75px;stroke-linecap:butt;stroke-linejoin:miter;stroke-opacity:1"
         id="text1282">
        <path
           d="m 290.32561,81.880206 c -0.32397,2.668406 1.19801,5.349382 3.93591,5.681784 1.16742,0.141735 1.74528,0.02856 2.789,-0.437047 l 0.0347,-0.98298 c -0.7489,0.360368 -1.27036,0.70604 -2.70185,0.532246 -1.90402,-0.231163 -3.09213,-2.293391 -2.80697,-4.642144 0.28347,-2.334855 1.93222,-4.066767 3.79454,-3.840666 1.09794,0.133298 1.64285,0.523818 2.27323,1.023436 l 0.34851,-1.12822 c -1.18123,-0.608804 -1.80495,-0.698632 -2.69442,-0.80662 -1.98741,-0.241287 -4.58966,1.445377 -4.97268,4.600211 z"
           style="fill:#f62196;fill-opacity:1;stroke-width:0.75px;stroke-linecap:butt;stroke-linejoin:round"
           id="path1359" />
        <path
           d="m 298.82718,87.788121 1.04319,0.119391 1.14933,-10.042446 -1.04319,-0.11939 z"
           style="fill:#f62196;fill-opacity:1;stroke-width:0.75px;stroke-linecap:butt;stroke-linejoin:round"
           id="path1361" />
        <path
           d="m 301.76711,85.012914 c -0.2063,1.89279 1.10942,3.388156 2.69602,3.561087 1.58661,0.172931 3.20598,-0.988443 3.41228,-2.881233 0.18962,-1.739697 -0.91483,-3.493694 -2.69628,-3.687862 -1.64228,-0.178999 -3.20571,1.115218 -3.41202,3.008008 z m 1.10074,-0.02085 c 0.18355,-1.684027 1.3265,-2.221349 2.21723,-2.124264 0.89072,0.09708 1.8926,0.854097 1.70753,2.552041 -0.18962,1.739697 -1.29992,2.365074 -2.23239,2.26344 -0.91856,-0.100118 -1.8835,-0.937603 -1.69237,-2.691217 z"
           style="fill:#f62196;fill-opacity:1;stroke-width:0.75px;stroke-linecap:butt;stroke-linejoin:round"
           id="path1363" />
        <path
           d="m 308.39814,88.364024 c 0.98576,0.678418 1.82955,0.8215 2.30305,0.870202 1.86615,0.191941 2.38891,-0.922421 2.46769,-1.68838 0.0931,-0.905225 -0.48735,-1.556029 -1.03255,-1.865435 -0.82334,-0.478752 -2.3321,-0.450974 -2.22754,-1.46761 0.0358,-0.348164 0.29628,-0.828033 1.25721,-0.729197 1.00271,0.103133 1.42258,0.399647 1.95242,0.721547 l 0.24773,-0.903394 c -0.73301,-0.399093 -1.20898,-0.560639 -1.98887,-0.640853 -1.89401,-0.194807 -2.39711,0.865282 -2.47303,1.603388 -0.10026,0.974857 0.67946,1.603936 1.27218,1.861933 0.4174,0.183669 1.00908,0.314895 1.30543,0.443894 0.26994,0.112207 0.74265,0.442304 0.68821,0.971512 -0.0387,0.376016 -0.34808,0.921221 -1.39257,0.813791 -1.12805,-0.116024 -1.74782,-0.658282 -2.11484,-0.921213 z"
           style="fill:#f62196;fill-opacity:1;stroke-width:0.75px;stroke-linecap:butt;stroke-linejoin:round"
           id="path1365" />
        <path
           d="m 314.08551,86.245192 c -0.16848,1.727805 0.89024,3.420545 2.71558,3.598535 0.87783,0.0856 1.63229,-0.150295 2.27085,-0.495954 l 0.006,-0.927791 c -0.65657,0.386102 -1.31485,0.645441 -2.19268,0.559842 -1.05898,-0.103261 -1.91681,-1.115291 -1.8326,-2.555919 l 4.31951,0.421198 0.0394,-0.404083 c 0.10694,-2.394928 -1.20288,-3.099371 -2.19219,-3.195839 -1.47699,-0.144023 -2.95188,1.132867 -3.13394,3.000011 z m 1.11162,-0.580859 c 0.21985,-0.667816 0.87911,-1.658511 1.93808,-1.55525 0.40409,0.0394 1.43147,0.322446 1.51753,1.892209 z"
           style="fill:#f62196;fill-opacity:1;stroke-width:0.75px;stroke-linecap:butt;stroke-linejoin:round"
           id="path1367" />
        <path
           d="m 320.25309,86.915264 c -0.15222,1.659032 0.67914,3.323954 2.10117,3.454426 0.92014,0.08442 1.6277,-0.272422 2.14392,-0.689 l -0.0665,0.724955 1.10138,0.101052 0.92353,-10.065722 -1.05955,-0.09721 -0.4106,4.475203 c -0.45213,-0.43513 -1.07284,-0.871668 -1.95116,-0.952253 -1.3802,-0.126634 -2.61332,1.208283 -2.78217,3.048553 z m 1.08871,0.08583 c 0.16757,-1.826329 1.43292,-2.286643 2.24152,-2.212454 l 0.0279,0.0026 c 0.15335,0.01407 0.5982,0.06894 0.99329,0.512899 0.2292,0.260029 0.26335,0.347515 0.24288,0.570578 l -0.24431,2.662815 c -0.0396,0.432185 -0.76142,1.097021 -1.5979,1.020273 -0.75284,-0.06907 -1.83221,-0.716399 -1.66337,-2.55667 z"
           style="fill:#f62196;fill-opacity:1;stroke-width:0.75px;stroke-linecap:butt;stroke-linejoin:round"
           id="path1369" />
        <path
           d="m 332.67492,86.254405 c -0.21993,2.678987 1.40517,5.298736 4.15392,5.524394 1.17206,0.09622 1.74507,-0.03935 2.7699,-0.545197 l -0.004,-0.983587 c -0.73431,0.389224 -1.24193,0.754917 -2.67909,0.636933 -1.91157,-0.156929 -3.179,-2.171384 -2.98542,-4.529451 0.19244,-2.344114 1.77258,-4.138845 3.64229,-3.985352 1.1023,0.09049 1.66198,0.459523 2.31131,0.934243 l 0.30437,-1.140922 c -1.20402,-0.562398 -1.83076,-0.627898 -2.72376,-0.701208 -1.99528,-0.163802 -4.52996,1.622802 -4.78998,4.790147 z"
           style="fill:#f62196;fill-opacity:1;stroke-width:0.75px;stroke-linecap:butt;stroke-linejoin:round"
           id="path1371" />
        <path
           d="m 341.38505,91.835001 1.0888,0.0836 0.25724,-3.350138 c 0.0793,-1.032959 0.51404,-2.122876 1.58888,-2.040343 1.36797,0.105042 1.28758,1.15196 1.24685,1.682398 l -0.30119,3.922454 1.0888,0.0836 0.30869,-4.020165 c 0.0654,-0.851494 0.12316,-2.335426 -1.73337,-2.477982 -0.96317,-0.07396 -1.59877,0.340596 -2.08619,0.836736 l 0.36229,-4.718111 -1.04692,-0.08039 z"
           style="fill:#f62196;fill-opacity:1;stroke-width:0.75px;stroke-linecap:butt;stroke-linejoin:round"
           id="path1373" />
        <path
           d="m 348.22242,90.769945 c -0.0467,0.642304 0.293,1.761887 1.4659,1.847169 1.53595,0.111679 2.34961,-0.460823 2.36459,-0.47377 l -0.0355,0.488709 1.0612,0.07716 0.30966,-4.258757 c 0.0155,-1.17798 -0.833,-2.250333 -2.1595,-2.346783 -0.87968,-0.06396 -1.53823,0.112746 -2.23689,0.454982 l 0.0158,0.941621 c 0.48413,-0.287648 1.09901,-0.635975 2.14625,-0.55983 0.18152,0.0132 0.54355,0.05356 0.84922,0.482856 0.31862,0.444275 0.2841,0.919022 0.26964,1.311005 l -0.0345,0.474747 c -1.43922,-0.09061 -3.90815,0.0808 -4.01577,1.560891 z m 1.02032,0.06015 c 0.064,-0.879678 1.93629,-0.954095 2.94265,-0.894959 l -0.064,0.879678 c -0.066,0.907604 -1.04366,1.033035 -1.64408,0.989378 -0.75401,-0.05482 -1.27116,-0.471424 -1.23461,-0.974097 z"
           style="fill:#f62196;fill-opacity:1;stroke-width:0.75px;stroke-linecap:butt;stroke-linejoin:round"
           id="path1375" />
        <path
           d="m 355.31955,92.868192 1.0894,0.07527 0.2316,-3.352008 c 0.0714,-1.033536 0.49777,-2.126748 1.57321,-2.052443 1.36874,0.09457 1.29636,1.142072 1.25969,1.672807 l -0.27116,3.924643 1.0894,0.07527 0.27792,-4.02241 c 0.0675,-0.977669 0.0354,-2.341124 -1.75228,-2.464644 -1.22907,-0.08492 -1.89861,0.668723 -2.11152,0.906613 l 0.0676,-0.977669 -1.01957,-0.07045 z"
           style="fill:#f62196;fill-opacity:1;stroke-width:0.75px;stroke-linecap:butt;stroke-linejoin:round"
           id="path1377" />
        <path
           d="m 362.55044,93.363686 1.08965,0.07171 0.22064,-3.352748 c 0.068,-1.033763 0.49082,-2.128362 1.5665,-2.057573 1.36904,0.0901 1.30008,1.13783 1.26515,1.668682 l -0.25834,3.925508 1.08965,0.07171 0.26477,-4.023297 c 0.0643,-0.977884 0.0278,-2.341227 -1.76033,-2.458904 -1.22934,-0.0809 -1.89642,0.674924 -2.10854,0.913509 l 0.0643,-0.977885 -1.01979,-0.06711 z"
           style="fill:#f62196;fill-opacity:1;stroke-width:0.75px;stroke-linecap:butt;stroke-linejoin:round"
           id="path1379" />
        <path
           d="m 369.33845,90.637289 c -0.10947,1.732545 1.00635,3.388202 2.8367,3.503851 0.88024,0.05562 1.62621,-0.205864 2.25262,-0.573095 l -0.0256,-0.927458 c -0.64302,0.408265 -1.29207,0.689897 -2.17232,0.63428 -1.06188,-0.06709 -1.95372,-1.049287 -1.91868,-2.491948 l 4.33136,0.273673 0.0256,-0.405192 c 0.0252,-2.397181 -1.30787,-3.056555 -2.29989,-3.119235 -1.48104,-0.09358 -2.91153,1.232858 -3.02983,3.105124 z m 1.09117,-0.618424 c 0.19695,-0.674923 0.82204,-1.687521 1.88393,-1.620427 0.40519,0.0256 1.44162,0.273451 1.58116,1.839366 z"
           style="fill:#f62196;fill-opacity:1;stroke-width:0.75px;stroke-linecap:butt;stroke-linejoin:round"
           id="path1381" />
        <path
           d="m 375.99013,94.224756 1.04802,0.06452 0.62111,-10.088899 -1.04802,-0.06452 z"
           style="fill:#f62196;fill-opacity:1;stroke-width:0.75px;stroke-linecap:butt;stroke-linejoin:round"
           id="path1383" />
      </g>
      <path
         style="fill:none;fill-rule:evenodd;stroke:none;stroke-width:0.75px;stroke-linecap:butt;stroke-linejoin:miter;stroke-opacity:1"
         d="m 139.79978,136.72824 c 17.06836,-6.10939 23.15057,-4.70358 46.95475,-1.53756"
         id="path1284"
         inkscape:connector-curvature="0"
         sodipodi:nodetypes="cc" />
      <path
         style="fill:none;fill-rule:evenodd;stroke:none;stroke-width:0.75px;stroke-linecap:butt;stroke-linejoin:miter;stroke-opacity:1"
         d="m 288.82494,86.580106 c 34.81196,4.411141 71.04321,6.75608 105.85517,8.752264"
         id="path1290"
         inkscape:connector-curvature="0"
         sodipodi:nodetypes="cc" />
      <path
         style="fill:none;fill-rule:evenodd;stroke:none;stroke-width:0.75px;stroke-linecap:butt;stroke-linejoin:miter;stroke-opacity:1"
         d="m 113.57266,296.08969 c 3.80688,-9.08468 7.3101,-16.85886 15.22109,-43.65605"
         id="path1295"
         inkscape:connector-curvature="0"
         sodipodi:nodetypes="cc" />
      <path
         style="fill:none;fill-rule:evenodd;stroke:#a267f5;stroke-width:2;stroke-linecap:butt;stroke-linejoin:miter;stroke-miterlimit:4;stroke-dasharray:none;stroke-opacity:1;marker-end:url(#Arrow2Mend)"
         d="M 398.00569,144.21344 H 328.97706"
         id="path1300"
         inkscape:connector-curvature="0"
         sodipodi:nodetypes="cc" />
      <g
         aria-label="Collision
Energy"
         style="font-style:normal;font-variant:normal;font-weight:normal;font-stretch:normal;font-size:14px;line-height:125%;font-family:'CMU Sans Serif';-inkscape-font-specification:'CMU Sans Serif';letter-spacing:0px;word-spacing:0px;fill:#a267f5;fill-opacity:1;stroke:none;stroke-width:0.75px;stroke-linecap:butt;stroke-linejoin:miter;stroke-opacity:1"
         id="text1928">
        <path
           d="m 347.76406,135.31874 c 0,2.688 1.834,5.166 4.592,5.166 1.176,0 1.736,-0.182 2.716,-0.77 l -0.084,-0.98 c -0.7,0.448 -1.176,0.854 -2.618,0.854 -1.918,0 -3.346,-1.904 -3.346,-4.27 0,-2.352 1.428,-4.27 3.304,-4.27 1.106,0 1.694,0.322 2.38,0.742 l 0.21,-1.162 c -1.246,-0.462 -1.876,-0.476 -2.772,-0.476 -2.002,0 -4.382,1.988 -4.382,5.166 z"
           style="text-align:end;text-anchor:end;fill:#a267f5;fill-opacity:1;stroke-width:0.75px;stroke-linecap:butt;stroke-linejoin:round"
           id="path1415" />
        <path
           d="m 356.20146,137.08274 c 0,1.904 1.47,3.248 3.066,3.248 1.596,0 3.08,-1.33 3.08,-3.234 0,-1.75 -1.288,-3.374 -3.08,-3.374 -1.652,0 -3.066,1.456 -3.066,3.36 z m 1.092,-0.14 c 0,-1.694 1.078,-2.352 1.974,-2.352 0.896,0 1.974,0.644 1.974,2.352 0,1.75 -1.036,2.492 -1.974,2.492 -0.924,0 -1.974,-0.728 -1.974,-2.492 z"
           style="text-align:end;text-anchor:end;fill:#a267f5;fill-opacity:1;stroke-width:0.75px;stroke-linecap:butt;stroke-linejoin:round"
           id="path1417" />
        <path
           d="m 363.91546,140.17674 h 1.05 v -10.108 h -1.05 z"
           style="text-align:end;text-anchor:end;fill:#a267f5;fill-opacity:1;stroke-width:0.75px;stroke-linecap:butt;stroke-linejoin:round"
           id="path1419" />
        <path
           d="m 367.2514,140.17674 h 1.05 v -10.108 h -1.05 z"
           style="text-align:end;text-anchor:end;fill:#a267f5;fill-opacity:1;stroke-width:0.75px;stroke-linecap:butt;stroke-linejoin:round"
           id="path1421" />
        <path
           d="m 370.58734,140.17674 h 1.05 v -6.23 h -1.05 z m -0.098,-8.26 h 1.26 v -1.246 h -1.26 z"
           style="text-align:end;text-anchor:end;fill:#a267f5;fill-opacity:1;stroke-width:0.75px;stroke-linecap:butt;stroke-linejoin:round"
           id="path1423" />
        <path
           d="m 373.16728,139.70074 c 1.05,0.574 1.904,0.63 2.38,0.63 1.876,0 2.282,-1.162 2.282,-1.932 0,-0.91 -0.644,-1.498 -1.218,-1.75 -0.868,-0.392 -2.366,-0.21 -2.366,-1.232 0,-0.35 0.21,-0.854 1.176,-0.854 1.008,0 1.456,0.252 2.016,0.518 l 0.154,-0.924 c -0.77,-0.322 -1.26,-0.434 -2.044,-0.434 -1.904,0 -2.296,1.106 -2.296,1.848 0,0.98 0.84,1.526 1.456,1.722 0.434,0.14 1.036,0.21 1.344,0.308 0.28,0.084 0.784,0.364 0.784,0.896 0,0.378 -0.252,0.952 -1.302,0.952 -1.134,0 -1.806,-0.476 -2.198,-0.7 z"
           style="text-align:end;text-anchor:end;fill:#a267f5;fill-opacity:1;stroke-width:0.75px;stroke-linecap:butt;stroke-linejoin:round"
           id="path1425" />
        <path
           d="m 379.28265,140.17674 h 1.05 v -6.23 h -1.05 z m -0.098,-8.26 h 1.26 v -1.246 h -1.26 z"
           style="text-align:end;text-anchor:end;fill:#a267f5;fill-opacity:1;stroke-width:0.75px;stroke-linecap:butt;stroke-linejoin:round"
           id="path1427" />
        <path
           d="m 381.90459,137.08274 c 0,1.904 1.47,3.248 3.066,3.248 1.596,0 3.08,-1.33 3.08,-3.234 0,-1.75 -1.288,-3.374 -3.08,-3.374 -1.652,0 -3.066,1.456 -3.066,3.36 z m 1.092,-0.14 c 0,-1.694 1.078,-2.352 1.974,-2.352 0.896,0 1.974,0.644 1.974,2.352 0,1.75 -1.036,2.492 -1.974,2.492 -0.924,0 -1.974,-0.728 -1.974,-2.492 z"
           style="text-align:end;text-anchor:end;fill:#a267f5;fill-opacity:1;stroke-width:0.75px;stroke-linecap:butt;stroke-linejoin:round"
           id="path1429" />
        <path
           d="m 389.60459,140.17674 h 1.092 v -3.36 c 0,-1.036 0.35,-2.156 1.428,-2.156 1.372,0 1.372,1.05 1.372,1.582 v 3.934 h 1.092 v -4.032 c 0,-0.98 -0.126,-2.338 -1.918,-2.338 -1.232,0 -1.848,0.798 -2.044,1.05 v -0.98 h -1.022 z"
           style="text-align:end;text-anchor:end;fill:#a267f5;fill-opacity:1;stroke-width:0.75px;stroke-linecap:butt;stroke-linejoin:round"
           id="path1431" />
        <path
           d="m 356.98809,157.67674 h 6.454 v -1.008 h -0.644 l -0.308,0.014 h -2.716 l -0.336,0.014 h -1.19 v -3.626 h 4.62 v -0.854 h -4.62 v -3.318 l 0.49,0.014 h 3.36 l 0.35,0.014 h 0.798 v -0.924 h -6.258 z"
           style="text-align:end;text-anchor:end;fill:#a267f5;fill-opacity:1;stroke-width:0.75px;stroke-linecap:butt;stroke-linejoin:round"
           id="path1433" />
        <path
           d="m 365.15928,157.67674 h 1.092 v -3.36 c 0,-1.036 0.35,-2.156 1.428,-2.156 1.372,0 1.372,1.05 1.372,1.582 v 3.934 h 1.092 v -4.032 c 0,-0.98 -0.126,-2.338 -1.918,-2.338 -1.232,0 -1.848,0.798 -2.044,1.05 v -0.98 h -1.022 z"
           style="text-align:end;text-anchor:end;fill:#a267f5;fill-opacity:1;stroke-width:0.75px;stroke-linecap:butt;stroke-linejoin:round"
           id="path1435" />
        <path
           d="m 371.76137,154.51274 c 0,1.736 1.218,3.318 3.052,3.318 0.882,0 1.61,-0.308 2.212,-0.714 l -0.084,-0.924 c -0.616,0.448 -1.246,0.77 -2.128,0.77 -1.064,0 -2.016,-0.924 -2.072,-2.366 h 4.34 v -0.406 c -0.126,-2.394 -1.498,-2.968 -2.492,-2.968 -1.484,0 -2.828,1.414 -2.828,3.29 z m 1.05,-0.686 c 0.154,-0.686 0.714,-1.736 1.778,-1.736 0.406,0 1.456,0.182 1.694,1.736 z"
           style="text-align:end;text-anchor:end;fill:#a267f5;fill-opacity:1;stroke-width:0.75px;stroke-linecap:butt;stroke-linejoin:round"
           id="path1437" />
        <path
           d="m 378.6264,157.67674 h 1.05 v -2.884 c 0,-2.044 1.554,-2.52 2.38,-2.548 v -0.938 c -1.484,0.028 -2.226,0.98 -2.45,1.33 v -1.26 h -0.98 z"
           style="text-align:end;text-anchor:end;fill:#a267f5;fill-opacity:1;stroke-width:0.75px;stroke-linecap:butt;stroke-linejoin:round"
           id="path1439" />
        <path
           d="m 382.65556,158.67074 c 0,1.078 1.386,1.89 3.108,1.89 1.708,0 3.108,-0.812 3.108,-1.904 0,-0.168 -0.028,-0.35 -0.07,-0.518 -0.392,-1.4 -2.1,-1.428 -3.024,-1.428 h -1.05 c -0.672,0 -0.784,-0.476 -0.784,-0.742 0,-0.098 0.014,-0.238 0.154,-0.518 0.308,0.196 0.658,0.42 1.274,0.42 1.302,0 2.24,-1.092 2.24,-2.282 0,-0.602 -0.182,-1.008 -0.546,-1.498 l 0.126,0.112 c 0.252,-0.014 0.686,-0.056 1.05,-0.056 0.28,0 0.546,0.014 0.826,0.042 l -0.154,-0.882 c -0.756,0 -1.498,0.14 -2.198,0.434 l 0.028,0.028 c -0.462,-0.322 -0.854,-0.462 -1.372,-0.462 -1.148,0 -2.226,0.924 -2.226,2.282 0,0.28 0.042,0.84 0.462,1.386 v 0.014 c -0.252,0.336 -0.406,0.714 -0.406,1.176 0,0.448 0.126,0.742 0.35,1.064 -0.546,0.322 -0.896,0.868 -0.896,1.442 z m 0.98,0 c 0,-0.406 0.308,-0.882 0.882,-0.938 l 0.406,-0.014 h 0.882 c 1.512,0 2.086,0.392 2.086,0.966 0,0.644 -1.008,1.078 -2.142,1.078 -0.77,0 -2.114,-0.308 -2.114,-1.092 z m 0.49,-5.082 c 0,-1.19 0.742,-1.484 1.246,-1.484 0.756,0 1.26,0.56 1.26,1.47 0,1.19 -0.742,1.484 -1.246,1.484 -0.756,0 -1.26,-0.56 -1.26,-1.47 z"
           style="text-align:end;text-anchor:end;fill:#a267f5;fill-opacity:1;stroke-width:0.75px;stroke-linecap:butt;stroke-linejoin:round"
           id="path1441" />
        <path
           d="m 389.47356,151.44674 2.618,5.978 c 0.056,0.112 0.07,0.168 0.07,0.238 0,0.056 -0.014,0.126 -0.056,0.224 -0.602,1.456 -0.714,1.876 -1.302,1.876 -0.238,0 -0.546,-0.084 -1.022,-0.238 l 0.07,0.91 c 0.336,0.084 0.756,0.112 1.022,0.112 0.644,0 1.05,-0.322 1.61,-1.61 l 3.038,-7.49 h -1.05 c -0.924,2.296 -1.834,4.578 -1.862,5.53 -0.126,-0.798 -0.126,-1.176 -2.03,-5.53 z"
           style="text-align:end;text-anchor:end;fill:#a267f5;fill-opacity:1;stroke-width:0.75px;stroke-linecap:butt;stroke-linejoin:round"
           id="path1443" />
      </g>
      <path
         style="fill:none;fill-rule:evenodd;stroke:#ffe46b;stroke-width:1.49542117;stroke-linecap:butt;stroke-linejoin:miter;stroke-miterlimit:4;stroke-dasharray:4.48626364, 1.49542120999999995;stroke-dashoffset:0;stroke-opacity:1"
         d="M 84.370642,160.84059 H 122.93948"
         id="path1942"
         inkscape:connector-curvature="0" />
      <path
         inkscape:connector-curvature="0"
         id="path1944"
         d="M 84.400672,94.52303 H 122.93948"
         style="fill:none;fill-rule:evenodd;stroke:#f62196;stroke-width:1.49483895;stroke-linecap:butt;stroke-linejoin:miter;stroke-miterlimit:4;stroke-dasharray:4.48451678, 1.49483892000000007;stroke-dashoffset:0;stroke-opacity:1" />
      <g
         id="g1971"
         transform="translate(191.13067,278.18028)"
         style="stroke-linecap:butt;stroke-linejoin:round">
        <g
           aria-label="Bound State"
           style="font-style:normal;font-variant:normal;font-weight:normal;font-stretch:normal;font-size:14px;line-height:125%;font-family:'CMU Sans Serif';-inkscape-font-specification:'CMU Sans Serif';letter-spacing:0px;word-spacing:0px;fill:#ffffff;fill-opacity:1;stroke:none;stroke-width:0.75px;stroke-linecap:butt;stroke-linejoin:miter;stroke-opacity:1"
           id="text1948">
          <path
             d="m 112.45075,18.203568 h 3.472 c 0.238,0 0.476,0 0.714,-0.028 1.596,-0.154 3.01,-1.204 3.01,-2.604 0,-1.316 -1.344,-2.226 -2.744,-2.45 1.61,-0.406 2.352,-1.316 2.352,-2.198 0,-0.9800005 -0.98,-2.4360005 -3.696,-2.4360005 h -3.108 z m 1.176,-0.784 v -3.318 l 0.014,-0.518 h 1.666 c 0.238,0 0.476,-0.014 0.714,0.014 1.316,0.126 2.478,0.91 2.478,1.96 0,0.742 -0.77,1.862 -2.884,1.862 z m 0,-4.704 V 9.7615675 l 0.014,-0.49 h 1.596 c 2.156,0 2.912,0.9940005 2.912,1.6660005 0,0.84 -0.98,1.778 -2.842,1.778 z"
             style="fill:#ffffff;stroke-width:0.75px;stroke-linecap:butt;stroke-linejoin:round"
             id="path1467" />
          <path
             d="m 120.87831,15.109568 c 0,1.904 1.47,3.248 3.066,3.248 1.596,0 3.08,-1.33 3.08,-3.234 0,-1.75 -1.288,-3.374 -3.08,-3.374 -1.652,0 -3.066,1.456 -3.066,3.36 z m 1.092,-0.14 c 0,-1.694 1.078,-2.352 1.974,-2.352 0.896,0 1.974,0.644 1.974,2.352 0,1.75 -1.036,2.492 -1.974,2.492 -0.924,0 -1.974,-0.728 -1.974,-2.492 z"
             style="fill:#ffffff;stroke-width:0.75px;stroke-linecap:butt;stroke-linejoin:round"
             id="path1469" />
          <path
             d="m 128.57831,16.495568 c 0,0.728 0,1.862 1.47,1.862 0.77,0 1.722,-0.196 2.45,-0.826 v 0.672 h 1.064 v -6.23 h -1.092 v 3.92 c 0,0.14 0,0.266 -0.014,0.406 -0.07,0.602 -0.616,1.274 -1.666,1.274 -0.952,0 -1.106,-0.308 -1.12,-0.91 v -4.69 h -1.092 z"
             style="fill:#ffffff;stroke-width:0.75px;stroke-linecap:butt;stroke-linejoin:round"
             id="path1471" />
          <path
             d="m 135.82441,18.203568 h 1.092 v -3.36 c 0,-1.036 0.35,-2.156 1.428,-2.156 1.372,0 1.372,1.05 1.372,1.582 v 3.934 h 1.092 v -4.032 c 0,-0.98 -0.126,-2.338 -1.918,-2.338 -1.232,0 -1.848,0.798 -2.044,1.05 v -0.98 h -1.022 z"
             style="fill:#ffffff;stroke-width:0.75px;stroke-linecap:butt;stroke-linejoin:round"
             id="path1473" />
          <path
             d="m 142.4405,15.109568 c 0,1.666 0.98,3.248 2.408,3.248 0.924,0 1.596,-0.42 2.072,-0.882 v 0.728 h 1.106 V 8.0955675 h -1.064 v 4.4940005 c -0.49,-0.392 -1.148,-0.77 -2.03,-0.77 -1.386,0 -2.492,1.442 -2.492,3.29 z m 1.092,-0.014 c 0,-1.834 1.218,-2.408 2.03,-2.408 h 0.028 c 0.154,0 0.602,0.014 1.036,0.42 0.252,0.238 0.294,0.322 0.294,0.546 v 2.674 c 0,0.434 -0.658,1.162 -1.498,1.162 -0.756,0 -1.89,-0.546 -1.89,-2.394 z"
             style="fill:#ffffff;stroke-width:0.75px;stroke-linecap:butt;stroke-linejoin:round"
             id="path1475" />
          <path
             d="m 154.48838,17.545568 c 0.882,0.56 1.918,0.966 3.206,0.966 1.918,0 3.164,-1.442 3.164,-2.954 0,-1.4 -0.98,-2.324 -1.876,-2.702 -0.504,-0.21 -1.694,-0.42 -2.1,-0.588 -0.616,-0.252 -1.12,-0.812 -1.12,-1.498 0,-0.8260005 0.756,-1.6520005 2.03,-1.6520005 1.148,0 1.736,0.392 2.38,0.8960005 l 0.196,-1.1620005 c -0.728,-0.392 -1.428,-0.672 -2.562,-0.672 -1.974,0 -3.164,1.4 -3.164,2.7580005 0,1.456 1.162,2.352 2.156,2.618 1.218,0.322 1.4,0.336 1.736,0.462 0.714,0.294 1.204,0.938 1.204,1.68 0,0.91 -0.77,1.848 -2.044,1.848 -1.386,0 -2.324,-0.63 -2.996,-1.162 z"
             style="fill:#ffffff;stroke-width:0.75px;stroke-linecap:butt;stroke-linejoin:round"
             id="path1477" />
          <path
             d="m 161.89,12.799568 h 1.176 v 3.766 c 0,1.54 0.686,1.792 1.148,1.792 0.63,0 1.344,-0.14 2.072,-0.532 l -0.224,-0.826 c -0.196,0.14 -0.63,0.462 -1.232,0.462 -0.728,0 -0.756,-0.826 -0.756,-1.218 v -3.444 h 1.974 v -0.826 h -1.974 v -1.764 h -0.98 v 1.764 h -1.204 z"
             style="fill:#ffffff;stroke-width:0.75px;stroke-linecap:butt;stroke-linejoin:round"
             id="path1479" />
          <path
             d="m 167.31259,16.621568 c 0,0.644 0.42,1.736 1.596,1.736 1.54,0 2.31,-0.63 2.324,-0.644 v 0.49 h 1.064 v -4.27 c -0.07,-1.176 -0.994,-2.184 -2.324,-2.184 -0.882,0 -1.526,0.224 -2.198,0.616 l 0.084,0.938 c 0.462,-0.322 1.05,-0.714 2.1,-0.714 0.182,0 0.546,0.014 0.882,0.42 0.35,0.42 0.35,0.896 0.364,1.288 v 0.476 c -1.442,0.014 -3.892,0.364 -3.892,1.848 z m 1.022,-0.014 c 0,-0.882 1.862,-1.092 2.87,-1.106 v 0.882 c 0,0.91 -0.966,1.106 -1.568,1.106 -0.756,0 -1.302,-0.378 -1.302,-0.882 z"
             style="fill:#ffffff;stroke-width:0.75px;stroke-linecap:butt;stroke-linejoin:round"
             id="path1481" />
          <path
             d="m 173.67516,12.799568 h 1.176 v 3.766 c 0,1.54 0.686,1.792 1.148,1.792 0.63,0 1.344,-0.14 2.072,-0.532 l -0.224,-0.826 c -0.196,0.14 -0.63,0.462 -1.232,0.462 -0.728,0 -0.756,-0.826 -0.756,-1.218 v -3.444 h 1.974 v -0.826 h -1.974 v -1.764 h -0.98 v 1.764 h -1.204 z"
             style="fill:#ffffff;stroke-width:0.75px;stroke-linecap:butt;stroke-linejoin:round"
             id="path1483" />
          <path
             d="m 178.95775,15.039568 c 0,1.736 1.218,3.318 3.052,3.318 0.882,0 1.61,-0.308 2.212,-0.714 l -0.084,-0.924 c -0.616,0.448 -1.246,0.77 -2.128,0.77 -1.064,0 -2.016,-0.924 -2.072,-2.366 h 4.34 v -0.406 c -0.126,-2.394 -1.498,-2.968 -2.492,-2.968 -1.484,0 -2.828,1.414 -2.828,3.29 z m 1.05,-0.686 c 0.154,-0.686 0.714,-1.736 1.778,-1.736 0.406,0 1.456,0.182 1.694,1.736 z"
             style="fill:#ffffff;stroke-width:0.75px;stroke-linecap:butt;stroke-linejoin:round"
             id="path1485" />
        </g>
        <path
           sodipodi:nodetypes="cc"
           style="fill:none;fill-rule:evenodd;stroke:#f62196;stroke-width:2;stroke-linecap:butt;stroke-linejoin:miter;stroke-miterlimit:4;stroke-dasharray:6.00000006, 2.00000001999999988;stroke-dashoffset:0;stroke-opacity:1"
           d="m 79.32478,11.429342 h 22.31413"
           id="path1944-7"
           inkscape:connector-curvature="0" />
        <path
           inkscape:connector-curvature="0"
           id="path1965"
           d="m 79.32478,15.929342 h 22.31413"
           style="fill:none;fill-rule:evenodd;stroke:#ffe46b;stroke-width:2;stroke-linecap:butt;stroke-linejoin:miter;stroke-miterlimit:4;stroke-dasharray:6.00000006, 2.00000001999999988;stroke-dashoffset:0;stroke-opacity:1"
           sodipodi:nodetypes="cc" />
      </g>
      <g
         aria-label="Energy"
         transform="rotate(-90)"
         style="font-style:normal;font-variant:normal;font-weight:normal;font-stretch:normal;font-size:14px;line-height:125%;font-family:'CMU Sans Serif';-inkscape-font-specification:'CMU Sans Serif';letter-spacing:0px;word-spacing:0px;fill:#eeeeec;fill-opacity:1;stroke:none;stroke-width:0.75px;stroke-linecap:butt;stroke-linejoin:miter;stroke-opacity:1"
         id="text2110">
        <path
           d="m -195.17416,38.591496 h 7.376 v -1.152 h -0.736 l -0.352,0.016 h -3.104 l -0.384,0.016 h -1.36 v -4.144 h 5.28 v -0.976 h -5.28 v -3.792 l 0.56,0.016 h 3.84 l 0.4,0.016 h 0.912 v -1.056 h -7.152 z"
           style="font-size:16px;fill:#eeeeec;stroke-width:0.75px;stroke-linecap:butt;stroke-linejoin:round"
           id="path1337" />
        <path
           d="m -185.83566,38.591496 h 1.248 v -3.84 c 0,-1.184 0.4,-2.464 1.632,-2.464 1.568,0 1.568,1.2 1.568,1.808 v 4.496 h 1.248 v -4.608 c 0,-1.12 -0.144,-2.672 -2.192,-2.672 -1.408,0 -2.112,0.912 -2.336,1.2 v -1.12 h -1.168 z"
           style="font-size:16px;fill:#eeeeec;stroke-width:0.75px;stroke-linecap:butt;stroke-linejoin:round"
           id="path1339" />
        <path
           d="m -178.29041,34.975496 c 0,1.984 1.392,3.792 3.488,3.792 1.008,0 1.84,-0.352 2.528,-0.816 l -0.096,-1.056 c -0.704,0.512 -1.424,0.88 -2.432,0.88 -1.216,0 -2.304,-1.056 -2.368,-2.704 h 4.96 v -0.464 c -0.144,-2.736 -1.712,-3.392 -2.848,-3.392 -1.696,0 -3.232,1.616 -3.232,3.76 z m 1.2,-0.784 c 0.176,-0.784 0.816,-1.984 2.032,-1.984 0.464,0 1.664,0.208 1.936,1.984 z"
           style="font-size:16px;fill:#eeeeec;stroke-width:0.75px;stroke-linecap:butt;stroke-linejoin:round"
           id="path1341" />
        <path
           d="m -170.44466,38.591496 h 1.2 v -3.296 c 0,-2.336 1.776,-2.88 2.72,-2.912 v -1.072 c -1.696,0.032 -2.544,1.12 -2.8,1.52 v -1.44 h -1.12 z"
           style="font-size:16px;fill:#eeeeec;stroke-width:0.75px;stroke-linecap:butt;stroke-linejoin:round"
           id="path1343" />
        <path
           d="m -165.83991,39.727496 c 0,1.232 1.584,2.16 3.552,2.16 1.952,0 3.552,-0.928 3.552,-2.176 0,-0.192 -0.032,-0.4 -0.08,-0.592 -0.448,-1.6 -2.4,-1.632 -3.456,-1.632 h -1.2 c -0.768,0 -0.896,-0.544 -0.896,-0.848 0,-0.112 0.016,-0.272 0.176,-0.592 0.352,0.224 0.752,0.48 1.456,0.48 1.488,0 2.56,-1.248 2.56,-2.608 0,-0.688 -0.208,-1.152 -0.624,-1.712 l 0.144,0.128 c 0.288,-0.016 0.784,-0.064 1.2,-0.064 0.32,0 0.624,0.016 0.944,0.048 l -0.176,-1.008 c -0.864,0 -1.712,0.16 -2.512,0.496 l 0.032,0.032 c -0.528,-0.368 -0.976,-0.528 -1.568,-0.528 -1.312,0 -2.544,1.056 -2.544,2.608 0,0.32 0.048,0.96 0.528,1.584 v 0.016 c -0.288,0.384 -0.464,0.816 -0.464,1.344 0,0.512 0.144,0.848 0.4,1.216 -0.624,0.368 -1.024,0.992 -1.024,1.648 z m 1.12,0 c 0,-0.464 0.352,-1.008 1.008,-1.072 l 0.464,-0.016 h 1.008 c 1.728,0 2.384,0.448 2.384,1.104 0,0.736 -1.152,1.232 -2.448,1.232 -0.88,0 -2.416,-0.352 -2.416,-1.248 z m 0.56,-5.808 c 0,-1.36 0.848,-1.696 1.424,-1.696 0.864,0 1.44,0.64 1.44,1.68 0,1.36 -0.848,1.696 -1.424,1.696 -0.864,0 -1.44,-0.64 -1.44,-1.68 z"
           style="font-size:16px;fill:#eeeeec;stroke-width:0.75px;stroke-linecap:butt;stroke-linejoin:round"
           id="path1345" />
        <path
           d="m -158.04791,31.471496 2.992,6.832 c 0.064,0.128 0.08,0.192 0.08,0.272 0,0.064 -0.016,0.144 -0.064,0.256 -0.688,1.664 -0.816,2.144 -1.488,2.144 -0.272,0 -0.624,-0.096 -1.168,-0.272 l 0.08,1.04 c 0.384,0.096 0.864,0.128 1.168,0.128 0.736,0 1.2,-0.368 1.84,-1.84 l 3.472,-8.56 h -1.2 c -1.056,2.624 -2.096,5.232 -2.128,6.32 -0.144,-0.912 -0.144,-1.344 -2.32,-6.32 z"
           style="font-size:16px;fill:#eeeeec;stroke-width:0.75px;stroke-linecap:butt;stroke-linejoin:round"
           id="path1347" />
      </g>
      <g
         aria-label="Separation"
         style="font-style:normal;font-variant:normal;font-weight:normal;font-stretch:normal;font-size:14px;line-height:125%;font-family:'CMU Sans Serif';-inkscape-font-specification:'CMU Sans Serif';letter-spacing:0px;word-spacing:0px;fill:#ffffff;fill-opacity:1;stroke:none;stroke-width:0.75px;stroke-linecap:butt;stroke-linejoin:miter;stroke-opacity:1"
         id="text2118">
        <path
           d="m 374.34932,193.57024 c 1.008,0.64 2.192,1.104 3.664,1.104 2.192,0 3.616,-1.648 3.616,-3.376 0,-1.6 -1.12,-2.656 -2.144,-3.088 -0.576,-0.24 -1.936,-0.48 -2.4,-0.672 -0.704,-0.288 -1.28,-0.928 -1.28,-1.712 0,-0.944 0.864,-1.888 2.32,-1.888 1.312,0 1.984,0.448 2.72,1.024 l 0.224,-1.328 c -0.832,-0.448 -1.632,-0.768 -2.928,-0.768 -2.256,0 -3.616,1.6 -3.616,3.152 0,1.664 1.328,2.688 2.464,2.992 1.392,0.368 1.6,0.384 1.984,0.528 0.816,0.336 1.376,1.072 1.376,1.92 0,1.04 -0.88,2.112 -2.336,2.112 -1.584,0 -2.656,-0.72 -3.424,-1.328 z"
           style="font-size:16px;fill:#ffffff;stroke-width:0.75px;stroke-linecap:butt;stroke-linejoin:round"
           id="path1446" />
        <path
           d="m 383.06432,190.70624 c 0,1.984 1.392,3.792 3.488,3.792 1.008,0 1.84,-0.352 2.528,-0.816 l -0.096,-1.056 c -0.704,0.512 -1.424,0.88 -2.432,0.88 -1.216,0 -2.304,-1.056 -2.368,-2.704 h 4.96 v -0.464 c -0.144,-2.736 -1.712,-3.392 -2.848,-3.392 -1.696,0 -3.232,1.616 -3.232,3.76 z m 1.2,-0.784 c 0.176,-0.784 0.816,-1.984 2.032,-1.984 0.464,0 1.664,0.208 1.936,1.984 z"
           style="font-size:16px;fill:#ffffff;stroke-width:0.75px;stroke-linecap:butt;stroke-linejoin:round"
           id="path1448" />
        <path
           d="m 390.91007,197.44224 h 1.248 v -3.856 c 0.528,0.496 1.216,0.912 2.16,0.912 1.552,0 2.976,-1.504 2.976,-3.76 0,-1.904 -1.008,-3.696 -2.528,-3.696 -0.544,0 -1.632,0.112 -2.656,0.944 v -0.784 h -1.2 z m 1.248,-5.136 v -3.328 c 0.096,-0.112 0.64,-0.912 1.696,-0.912 1.312,0 2.176,1.296 2.176,2.704 0,1.696 -1.2,2.752 -2.32,2.752 -0.944,0 -1.552,-0.832 -1.552,-1.216 z"
           style="font-size:16px;fill:#ffffff;stroke-width:0.75px;stroke-linecap:butt;stroke-linejoin:round"
           id="path1450" />
        <path
           d="m 398.59932,192.51424 c 0,0.736 0.48,1.984 1.824,1.984 1.76,0 2.64,-0.72 2.656,-0.736 v 0.56 h 1.216 v -4.88 c -0.08,-1.344 -1.136,-2.496 -2.656,-2.496 -1.008,0 -1.744,0.256 -2.512,0.704 l 0.096,1.072 c 0.528,-0.368 1.2,-0.816 2.4,-0.816 0.208,0 0.624,0.016 1.008,0.48 0.4,0.48 0.4,1.024 0.416,1.472 v 0.544 c -1.648,0.016 -4.448,0.416 -4.448,2.112 z m 1.168,-0.016 c 0,-1.008 2.128,-1.248 3.28,-1.264 v 1.008 c 0,1.04 -1.104,1.264 -1.792,1.264 -0.864,0 -1.488,-0.432 -1.488,-1.008 z"
           style="font-size:16px;fill:#ffffff;stroke-width:0.75px;stroke-linecap:butt;stroke-linejoin:round"
           id="path1452" />
        <path
           d="m 406.44132,194.32224 h 1.2 v -3.296 c 0,-2.336 1.776,-2.88 2.72,-2.912 v -1.072 c -1.696,0.032 -2.544,1.12 -2.8,1.52 v -1.44 h -1.12 z"
           style="font-size:16px;fill:#ffffff;stroke-width:0.75px;stroke-linecap:butt;stroke-linejoin:round"
           id="path1454" />
        <path
           d="m 411.31807,192.51424 c 0,0.736 0.48,1.984 1.824,1.984 1.76,0 2.64,-0.72 2.656,-0.736 v 0.56 h 1.216 v -4.88 c -0.08,-1.344 -1.136,-2.496 -2.656,-2.496 -1.008,0 -1.744,0.256 -2.512,0.704 l 0.096,1.072 c 0.528,-0.368 1.2,-0.816 2.4,-0.816 0.208,0 0.624,0.016 1.008,0.48 0.4,0.48 0.4,1.024 0.416,1.472 v 0.544 c -1.648,0.016 -4.448,0.416 -4.448,2.112 z m 1.168,-0.016 c 0,-1.008 2.128,-1.248 3.28,-1.264 v 1.008 c 0,1.04 -1.104,1.264 -1.792,1.264 -0.864,0 -1.488,-0.432 -1.488,-1.008 z"
           style="font-size:16px;fill:#ffffff;stroke-width:0.75px;stroke-linecap:butt;stroke-linejoin:round"
           id="path1456" />
        <path
           d="m 418.58957,188.14624 h 1.344 v 4.304 c 0,1.76 0.784,2.048 1.312,2.048 0.72,0 1.536,-0.16 2.368,-0.608 l -0.256,-0.944 c -0.224,0.16 -0.72,0.528 -1.408,0.528 -0.832,0 -0.864,-0.944 -0.864,-1.392 v -3.936 h 2.256 v -0.944 h -2.256 v -2.016 h -1.12 v 2.016 h -1.376 z"
           style="font-size:16px;fill:#ffffff;stroke-width:0.75px;stroke-linecap:butt;stroke-linejoin:round"
           id="path1458" />
        <path
           d="m 425.37882,194.32224 h 1.2 v -7.12 h -1.2 z m -0.112,-9.44 h 1.44 v -1.424 h -1.44 z"
           style="font-size:16px;fill:#ffffff;stroke-width:0.75px;stroke-linecap:butt;stroke-linejoin:round"
           id="path1460" />
        <path
           d="m 428.37532,190.78624 c 0,2.176 1.68,3.712 3.504,3.712 1.824,0 3.52,-1.52 3.52,-3.696 0,-2 -1.472,-3.856 -3.52,-3.856 -1.888,0 -3.504,1.664 -3.504,3.84 z m 1.248,-0.16 c 0,-1.936 1.232,-2.688 2.256,-2.688 1.024,0 2.256,0.736 2.256,2.688 0,2 -1.184,2.848 -2.256,2.848 -1.056,0 -2.256,-0.832 -2.256,-2.848 z"
           style="font-size:16px;fill:#ffffff;stroke-width:0.75px;stroke-linecap:butt;stroke-linejoin:round"
           id="path1462" />
        <path
           d="m 437.17532,194.32224 h 1.248 v -3.84 c 0,-1.184 0.4,-2.464 1.632,-2.464 1.568,0 1.568,1.2 1.568,1.808 v 4.496 h 1.248 v -4.608 c 0,-1.12 -0.144,-2.672 -2.192,-2.672 -1.408,0 -2.112,0.912 -2.336,1.2 v -1.12 h -1.168 z"
           style="font-size:16px;fill:#ffffff;stroke-width:0.75px;stroke-linecap:butt;stroke-linejoin:round"
           id="path1464" />
      </g>
      <path
         transform="translate(0,-55.5)"
         inkscape:connector-curvature="0"
         clip-path="url(#clipPath1268)"
         d="m 80.998595,-1 0.775419,45.24241 0.183201,10.689003 0.974939,46.319067 0.974939,37.43079 0.974938,30.00392 0.974939,23.80356 0.974938,18.63321 0.974939,14.32835 0.974938,10.75106 0.974939,7.78554 0.649959,3.80046 0.649959,2.84449 0.649959,2.00584 0.649959,1.27171 0.649959,0.63067 0.32498,0.10122 0.324979,-0.0287 0.649959,-0.41185 0.649959,-0.83055 0.649959,-1.19085 0.974939,-2.34988 1.299918,-3.95652 1.624898,-5.87035 2.27486,-9.19785 6.82457,-28.20057 2.59983,-9.62238 2.27486,-7.66288 2.27486,-6.92789 2.27485,-6.2027 2.27486,-5.50895 2.27486,-4.859 1.94987,-3.68537 1.94988,-3.27743 1.94988,-2.90224 1.94987,-2.5589 2.27486,-2.59191 2.27486,-2.21114 2.27485,-1.87204 2.27486,-1.57099 2.27486,-1.30435 2.27485,-1.06875 2.59984,-0.96847 2.59984,-0.73381 2.92481,-0.58508 3.2498,-0.39787 3.24979,-0.17718 3.89976,0.024 4.22473,0.25661 4.87469,0.52223 5.84964,0.85577 7.47452,1.32779 11.37429,2.27133 26.9733,5.44224 13.64914,2.4884 13.32416,2.19947 13.32416,1.97488 13.97412,1.84648 14.94906,1.74626 15.92399,1.63174 17.22392,1.53689 18.84881,1.45237 20.47371,1.35143 22.74857,1.27523 10.72432,0.53155 v 0"
         style="opacity:0.54299999;fill:none;stroke:#f62196;stroke-width:1.5;stroke-linecap:square;stroke-linejoin:round;stroke-opacity:1"
         id="path905"
         sodipodi:nodetypes="cccccccccccccccccccccccccccccccccccccccccccccccccccccccccccccccccc" />
      <path
         sodipodi:nodetypes="cccccccccccccccccccccccccccccccccccccccccccccccccccccccccccccccccc"
         id="path943"
         style="opacity:0.203;fill:none;stroke:#f62196;stroke-width:1.5;stroke-linecap:square;stroke-linejoin:round;stroke-opacity:1"
         d="m 80.998595,-1 0.775419,45.24241 0.183201,10.689003 0.974939,46.319067 0.974939,37.43079 0.974938,30.00392 0.974939,23.80356 0.974938,18.63321 0.974939,14.32835 0.974938,10.75106 0.974939,7.78554 0.649959,3.80046 0.649959,2.84449 0.649959,2.00584 0.649959,1.27171 0.649959,0.63067 0.32498,0.10122 0.324979,-0.0287 0.649959,-0.41185 0.649959,-0.83055 0.649959,-1.19085 0.974939,-2.34988 1.299918,-3.95652 1.624898,-5.87035 2.27486,-9.19785 6.82457,-28.20057 2.59983,-9.62238 2.27486,-7.66288 2.27486,-6.92789 2.27485,-6.2027 2.27486,-5.50895 2.27486,-4.859 1.94987,-3.68537 1.94988,-3.27743 1.94988,-2.90224 1.94987,-2.5589 2.27486,-2.59191 2.27486,-2.21114 2.27485,-1.87204 2.27486,-1.57099 2.27486,-1.30435 2.27485,-1.06875 2.59984,-0.96847 2.59984,-0.73381 2.92481,-0.58508 3.2498,-0.39787 3.24979,-0.17718 3.89976,0.024 4.22473,0.25661 4.87469,0.52223 5.84964,0.85577 7.47452,1.32779 11.37429,2.27133 26.9733,5.44224 13.64914,2.4884 13.32416,2.19947 13.32416,1.97488 13.97412,1.84648 14.94906,1.74626 15.92399,1.63174 17.22392,1.53689 18.84881,1.45237 20.47371,1.35143 22.74857,1.27523 10.72432,0.53155 v 0"
         clip-path="url(#clipPath1268)"
         inkscape:connector-curvature="0"
         transform="translate(0,-46.5)" />
      <path
         style="opacity:0.50899999;fill:none;fill-rule:evenodd;stroke:#f62196;stroke-width:1.49483895;stroke-linecap:butt;stroke-linejoin:miter;stroke-miterlimit:4;stroke-dasharray:4.48451678, 1.49483892000000007;stroke-dashoffset:0;stroke-opacity:1"
         d="M 84.400672,105.02303 H 122.93948"
         id="path945"
         inkscape:connector-curvature="0" />
      <path
         inkscape:connector-curvature="0"
         id="path947"
         d="M 84.400672,115.52303 H 122.93948"
         style="opacity:0.21199999;fill:none;fill-rule:evenodd;stroke:#f62196;stroke-width:1.49483895;stroke-linecap:butt;stroke-linejoin:miter;stroke-miterlimit:4;stroke-dasharray:4.48451678, 1.49483892000000007;stroke-dashoffset:0;stroke-opacity:1" />
      <path
         style="fill:none;fill-rule:evenodd;stroke:#f62196;stroke-width:1.5;stroke-linecap:butt;stroke-linejoin:miter;stroke-miterlimit:4;stroke-dasharray:none;stroke-opacity:1;marker-start:url(#marker1511);marker-end:url(#Arrow1Mend);opacity:0.77"
         d="M 404.19196,88.446795 V 131.61523"
         id="path949"
         inkscape:connector-curvature="0" />
      <g
         aria-label="Magnetic
Tuning"
         transform="rotate(-90)"
         style="font-style:normal;font-variant:normal;font-weight:normal;font-stretch:normal;font-size:14px;line-height:125%;font-family:'CMU Sans Serif';-inkscape-font-specification:'CMU Sans Serif';text-align:center;letter-spacing:0px;word-spacing:0px;text-anchor:middle;opacity:0.76999996;fill:#f62196;fill-opacity:1;stroke:none;stroke-width:0.75px;stroke-linecap:butt;stroke-linejoin:miter;stroke-opacity:1"
         id="text1575">
        <path
           d="m -134.48505,418.10431 h 1.092 v -8.736 c 0.126,0.616 0.462,1.498 1.008,2.982 l 2.1,5.446 h 1.008 l 2.156,-5.614 0.84,-2.296 0.14,-0.518 0.014,0.448 v 8.288 h 1.092 v -9.716 h -1.61 l -2.156,5.628 c -0.686,1.792 -0.91,2.492 -0.952,2.8 h -0.014 c -0.056,-0.322 -0.392,-1.26 -0.966,-2.814 l -2.156,-5.614 h -1.596 z"
           style="text-align:center;text-anchor:middle;fill:#f62196;fill-opacity:1;stroke-width:0.75px;stroke-linecap:butt;stroke-linejoin:round"
           id="path1386" />
        <path
           d="m -123.01905,416.52231 c 0,0.644 0.42,1.736 1.596,1.736 1.54,0 2.31,-0.63 2.324,-0.644 v 0.49 h 1.064 v -4.27 c -0.07,-1.176 -0.994,-2.184 -2.324,-2.184 -0.882,0 -1.526,0.224 -2.198,0.616 l 0.084,0.938 c 0.462,-0.322 1.05,-0.714 2.1,-0.714 0.182,0 0.546,0.014 0.882,0.42 0.35,0.42 0.35,0.896 0.364,1.288 v 0.476 c -1.442,0.014 -3.892,0.364 -3.892,1.848 z m 1.022,-0.014 c 0,-0.882 1.862,-1.092 2.87,-1.106 v 0.882 c 0,0.91 -0.966,1.106 -1.568,1.106 -0.756,0 -1.302,-0.378 -1.302,-0.882 z"
           style="text-align:center;text-anchor:middle;fill:#f62196;fill-opacity:1;stroke-width:0.75px;stroke-linecap:butt;stroke-linejoin:round"
           id="path1388" />
        <path
           d="m -116.53049,419.09831 c 0,1.078 1.386,1.89 3.108,1.89 1.708,0 3.108,-0.812 3.108,-1.904 0,-0.168 -0.028,-0.35 -0.07,-0.518 -0.392,-1.4 -2.1,-1.428 -3.024,-1.428 h -1.05 c -0.672,0 -0.784,-0.476 -0.784,-0.742 0,-0.098 0.014,-0.238 0.154,-0.518 0.308,0.196 0.658,0.42 1.274,0.42 1.302,0 2.24,-1.092 2.24,-2.282 0,-0.602 -0.182,-1.008 -0.546,-1.498 l 0.126,0.112 c 0.252,-0.014 0.686,-0.056 1.05,-0.056 0.28,0 0.546,0.014 0.826,0.042 l -0.154,-0.882 c -0.756,0 -1.498,0.14 -2.198,0.434 l 0.028,0.028 c -0.462,-0.322 -0.854,-0.462 -1.372,-0.462 -1.148,0 -2.226,0.924 -2.226,2.282 0,0.28 0.042,0.84 0.462,1.386 v 0.014 c -0.252,0.336 -0.406,0.714 -0.406,1.176 0,0.448 0.126,0.742 0.35,1.064 -0.546,0.322 -0.896,0.868 -0.896,1.442 z m 0.98,0 c 0,-0.406 0.308,-0.882 0.882,-0.938 l 0.406,-0.014 h 0.882 c 1.512,0 2.086,0.392 2.086,0.966 0,0.644 -1.008,1.078 -2.142,1.078 -0.77,0 -2.114,-0.308 -2.114,-1.092 z m 0.49,-5.082 c 0,-1.19 0.742,-1.484 1.246,-1.484 0.756,0 1.26,0.56 1.26,1.47 0,1.19 -0.742,1.484 -1.246,1.484 -0.756,0 -1.26,-0.56 -1.26,-1.47 z"
           style="text-align:center;text-anchor:middle;fill:#f62196;fill-opacity:1;stroke-width:0.75px;stroke-linecap:butt;stroke-linejoin:round"
           id="path1390" />
        <path
           d="m -108.78849,418.10431 h 1.092 v -3.36 c 0,-1.036 0.35,-2.156 1.428,-2.156 1.372,0 1.372,1.05 1.372,1.582 v 3.934 h 1.092 v -4.032 c 0,-0.98 -0.126,-2.338 -1.918,-2.338 -1.232,0 -1.848,0.798 -2.044,1.05 v -0.98 h -1.022 z"
           style="text-align:center;text-anchor:middle;fill:#f62196;fill-opacity:1;stroke-width:0.75px;stroke-linecap:butt;stroke-linejoin:round"
           id="path1392" />
        <path
           d="m -102.18639,414.94031 c 0,1.736 1.218,3.318 3.051998,3.318 0.882,0 1.61,-0.308 2.212,-0.714 l -0.084,-0.924 c -0.616,0.448 -1.246,0.77 -2.128,0.77 -1.063998,0 -2.015998,-0.924 -2.071998,-2.366 h 4.339998 v -0.406 c -0.126,-2.394 -1.498,-2.968 -2.492,-2.968 -1.483998,0 -2.827998,1.414 -2.827998,3.29 z m 1.05,-0.686 c 0.154,-0.686 0.714,-1.736 1.777998,-1.736 0.406,0 1.456,0.182 1.694,1.736 z"
           style="text-align:center;text-anchor:middle;fill:#f62196;fill-opacity:1;stroke-width:0.75px;stroke-linecap:butt;stroke-linejoin:round"
           id="path1394" />
        <path
           d="m -96.20336,412.70031 h 1.176 v 3.766 c 0,1.54 0.686,1.792 1.148,1.792 0.63,0 1.344,-0.14 2.072,-0.532 l -0.224,-0.826 c -0.196,0.14 -0.63,0.462 -1.232,0.462 -0.728,0 -0.756,-0.826 -0.756,-1.218 v -3.444 h 1.974 v -0.826 h -1.974 v -1.764 h -0.98 v 1.764 h -1.204 z"
           style="text-align:center;text-anchor:middle;fill:#f62196;fill-opacity:1;stroke-width:0.75px;stroke-linecap:butt;stroke-linejoin:round"
           id="path1396" />
        <path
           d="m -90.262767,418.10431 h 1.05 v -6.23 h -1.05 z m -0.098,-8.26 h 1.26 v -1.246 h -1.26 z"
           style="text-align:center;text-anchor:middle;fill:#f62196;fill-opacity:1;stroke-width:0.75px;stroke-linecap:butt;stroke-linejoin:round"
           id="path1398" />
        <path
           d="m -87.570829,414.98231 c 0,1.792 1.316,3.276 3.038,3.276 0.966,0 1.652,-0.308 2.282,-0.714 l -0.07,-0.938 c -0.448,0.308 -1.106,0.756 -2.198,0.756 -1.176,0 -1.96,-1.022 -1.96,-2.38 0,-1.218 0.616,-2.436 1.974,-2.436 1.106,0 1.47,0.294 2.016,0.644 l 0.168,-0.924 c -0.854,-0.49 -1.302,-0.616 -2.17,-0.616 -1.96,0 -3.08,1.708 -3.08,3.332 z"
           style="text-align:center;text-anchor:middle;fill:#f62196;fill-opacity:1;stroke-width:0.75px;stroke-linecap:butt;stroke-linejoin:round"
           id="path1400" />
        <path
           d="m -128.60013,426.88231 h 1.988 l 1.652,-0.014 v 8.736 h 1.246 v -8.736 l 1.638,0.014 h 1.988 v -0.924 h -8.512 z"
           style="text-align:center;text-anchor:middle;fill:#f62196;fill-opacity:1;stroke-width:0.75px;stroke-linecap:butt;stroke-linejoin:round"
           id="path1402" />
        <path
           d="m -119.60294,433.89631 c 0,0.728 0,1.862 1.47,1.862 0.77,0 1.722,-0.196 2.45,-0.826 v 0.672 h 1.064 v -6.23 h -1.092 v 3.92 c 0,0.14 0,0.266 -0.014,0.406 -0.07,0.602 -0.616,1.274 -1.666,1.274 -0.952,0 -1.106,-0.308 -1.12,-0.91 v -4.69 h -1.092 z"
           style="text-align:center;text-anchor:middle;fill:#f62196;fill-opacity:1;stroke-width:0.75px;stroke-linecap:butt;stroke-linejoin:round"
           id="path1404" />
        <path
           d="m -112.35684,435.60431 h 1.092 v -3.36 c 0,-1.036 0.35,-2.156 1.428,-2.156 1.372,0 1.372,1.05 1.372,1.582 v 3.934 h 1.092 v -4.032 c 0,-0.98 -0.126,-2.338 -1.918,-2.338 -1.232,0 -1.848,0.798 -2.044,1.05 v -0.98 h -1.022 z"
           style="text-align:center;text-anchor:middle;fill:#f62196;fill-opacity:1;stroke-width:0.75px;stroke-linecap:butt;stroke-linejoin:round"
           id="path1406" />
        <path
           d="m -105.09675,435.60431 h 1.05 v -6.23 h -1.05 z m -0.098,-8.26 h 1.26 v -1.246 h -1.26 z"
           style="text-align:center;text-anchor:middle;fill:#f62196;fill-opacity:1;stroke-width:0.75px;stroke-linecap:butt;stroke-linejoin:round"
           id="path1408" />
        <path
           d="m -101.77481,435.60431 h 1.092 v -3.36 c 0,-1.036 0.35,-2.156 1.427996,-2.156 1.372,0 1.372,1.05 1.372,1.582 v 3.934 h 1.092 v -4.032 c 0,-0.98 -0.126,-2.338 -1.918,-2.338 -1.232,0 -1.847996,0.798 -2.043996,1.05 v -0.98 h -1.022 z"
           style="text-align:center;text-anchor:middle;fill:#f62196;fill-opacity:1;stroke-width:0.75px;stroke-linecap:butt;stroke-linejoin:round"
           id="path1410" />
        <path
           d="m -95.27072,436.59831 c 0,1.078 1.386,1.89 3.108,1.89 1.708,0 3.108,-0.812 3.108,-1.904 0,-0.168 -0.028,-0.35 -0.07,-0.518 -0.392,-1.4 -2.1,-1.428 -3.024,-1.428 h -1.05 c -0.672,0 -0.784,-0.476 -0.784,-0.742 0,-0.098 0.014,-0.238 0.154,-0.518 0.308,0.196 0.658,0.42 1.274,0.42 1.302,0 2.24,-1.092 2.24,-2.282 0,-0.602 -0.182,-1.008 -0.546,-1.498 l 0.126,0.112 c 0.252,-0.014 0.686,-0.056 1.05,-0.056 0.28,0 0.546,0.014 0.826,0.042 l -0.154,-0.882 c -0.756,0 -1.498,0.14 -2.198,0.434 l 0.028,0.028 c -0.462,-0.322 -0.854,-0.462 -1.372,-0.462 -1.148,0 -2.226,0.924 -2.226,2.282 0,0.28 0.042,0.84 0.462,1.386 v 0.014 c -0.252,0.336 -0.406,0.714 -0.406,1.176 0,0.448 0.126,0.742 0.35,1.064 -0.546,0.322 -0.896,0.868 -0.896,1.442 z m 0.98,0 c 0,-0.406 0.308,-0.882 0.882,-0.938 l 0.406,-0.014 h 0.882 c 1.512,0 2.086,0.392 2.086,0.966 0,0.644 -1.008,1.078 -2.142,1.078 -0.77,0 -2.114,-0.308 -2.114,-1.092 z m 0.49,-5.082 c 0,-1.19 0.742,-1.484 1.246,-1.484 0.756,0 1.26,0.56 1.26,1.47 0,1.19 -0.742,1.484 -1.246,1.484 -0.756,0 -1.26,-0.56 -1.26,-1.47 z"
           style="text-align:center;text-anchor:middle;fill:#f62196;fill-opacity:1;stroke-width:0.75px;stroke-linecap:butt;stroke-linejoin:round"
           id="path1412" />
      </g>
    </g>
  </g>
  <defs
     id="defs337">
    <clipPath
       id="p95e0666dc2"
       style="stroke-linecap:butt;stroke-linejoin:round">
      <rect
         height="266.112"
         width="357.12"
         x="57.599998"
         y="41.472"
         id="rect334"
         style="stroke-linecap:butt;stroke-linejoin:round" />
    </clipPath>
  </defs>
</svg>
